<?xml version="1.0" standalone="no"?>
<!DOCTYPE svg PUBLIC "-//W3C//DTD SVG 1.1//EN" "http://www.w3.org/Graphics/SVG/1.1/DTD/svg11.dtd" >
<svg xmlns="http://www.w3.org/2000/svg" xmlns:xlink="http://www.w3.org/1999/xlink" version="1.1">
<metadata>
Created by FontForge 20170515 at Thu Jan  4 02:59:49 2018
 By fw_worker
Copyright \(c\) 2002 by \251 2009 Designed by Svetoslav Simov \251 Fontfabric, Inc. All rights reserved.
</metadata>
<defs>
<font id="UniSansThinCAPS" horiz-adv-x="600" >
  <font-face 
    font-family="Uni Sans Thin CAPS"
    font-weight="250"
    font-variant="small-caps"
    font-stretch="normal"
    units-per-em="1000"
    panose-1="0 0 5 0 0 0 0 0 0 0"
    ascent="756"
    descent="-244"
    x-height="708"
    cap-height="708"
    bbox="3 -249 995 921"
    underline-thickness="50"
    underline-position="-100"
    stemh="25"
    stemv="25"
    unicode-range="U+0020-FB02"
  />
<missing-glyph horiz-adv-x="563" 
d="M512 708v-708h-466v708h466zM77 692l202 -329l202 329h-404zM270 350l-208 338v-667zM496 688l-208 -338l208 -329v667zM279 336l-202 -320h404z" />
    <glyph glyph-name="fi" unicode="fi" horiz-adv-x="740" 
d="M501 683h-383v-330h348v-25h-348v-328h-25v708h408v-25zM647 708v-708h-25v708h25z" />
    <glyph glyph-name="fl" unicode="fl" horiz-adv-x="1017" 
d="M501 683h-383v-330h348v-25h-348v-328h-25v708h408v-25zM995 0h-379v708h25v-683h354v-25z" />
    <glyph glyph-name=".notdef" horiz-adv-x="563" 
d="M512 708v-708h-466v708h466zM77 692l202 -329l202 329h-404zM270 350l-208 338v-667zM496 688l-208 -338l208 -329v667zM279 336l-202 -320h404z" />
    <glyph glyph-name="A" unicode="A" 
d="M139 253l-94 -253h-27l262 708h40l262 -708h-27l-94 253h-322zM302 684h-4l-150 -406h304z" />
    <glyph glyph-name="Aacute" unicode="&#xc1;" 
d="M338 862h35l-72 -103h-25zM139 253l-94 -253h-27l262 708h40l262 -708h-27l-94 253h-322zM302 684h-4l-150 -406h304z" />
    <glyph glyph-name="Abreve" unicode="&#x102;" 
d="M300 777c-44 0 -88 26 -100 77h23c11 -37 44 -55 77 -55s66 18 77 55h23c-12 -51 -56 -77 -100 -77zM139 253l-94 -253h-27l262 708h40l262 -708h-27l-94 253h-322zM302 684h-4l-150 -406h304z" />
    <glyph glyph-name="Acircumflex" unicode="&#xc2;" 
d="M400 755h-28l-72 79l-71 -79h-29l86 94h28zM139 253l-94 -253h-27l262 708h40l262 -708h-27l-94 253h-322zM302 684h-4l-150 -406h304z" />
    <glyph glyph-name="Adieresis" unicode="&#xc4;" 
d="M183 809c0 13 11 24 24 24s24 -11 24 -24s-11 -24 -24 -24s-24 11 -24 24zM363 809c0 13 11 24 24 24s24 -11 24 -24s-11 -24 -24 -24s-24 11 -24 24zM139 253l-94 -253h-27l262 708h40l262 -708h-27l-94 253h-322zM302 684h-4l-150 -406h304z" />
    <glyph glyph-name="Agrave" unicode="&#xc0;" 
d="M294 759l-72 103h35l62 -103h-25zM139 253l-94 -253h-27l262 708h40l262 -708h-27l-94 253h-322zM302 684h-4l-150 -406h304z" />
    <glyph glyph-name="Amacron" unicode="&#x100;" 
d="M201 786v21h197v-21h-197zM139 253l-94 -253h-27l262 708h40l262 -708h-27l-94 253h-322zM302 684h-4l-150 -406h304z" />
    <glyph glyph-name="Aogonek" unicode="&#x104;" 
d="M617 -164l6 -15c-46 -38 -109 -34 -126 24c-13 46 8 92 60 155h-2l-94 253h-322l-94 -253h-27l262 708h40l262 -708h-2c-63 -78 -71 -116 -61 -149c11 -35 51 -47 98 -15zM452 278l-150 406h-4l-150 -406h304z" />
    <glyph glyph-name="Aring" unicode="&#xc5;" 
d="M582 0h-27l-94 253h-322l-94 -253h-27l257 693c-30 10 -52 37 -52 74c0 51 36 78 78 78c45 0 75 -38 75 -79c0 -32 -21 -62 -51 -73zM246 766c0 -31 24 -56 54 -56c31 0 55 27 55 57s-24 57 -55 57s-54 -22 -54 -58zM452 278l-150 406h-4l-150 -406h304z" />
    <glyph glyph-name="Atilde" unicode="&#xc3;" 
d="M211 788l-15 6c10 26 30 49 60 49c40 0 68 -48 99 -48c21 0 31 12 39 32l16 -6c-8 -24 -24 -48 -55 -48c-39 0 -65 49 -100 49c-19 0 -35 -13 -44 -34zM139 253l-94 -253h-27l262 708h40l262 -708h-27l-94 253h-322zM302 684h-4l-150 -406h304z" />
    <glyph glyph-name="AE" unicode="&#xc6;" horiz-adv-x="771" 
d="M720 708v-24h-304v-328h273v-24h-273v-310h304v-22h-327v253h-231l-128 -253h-28l351 708h363zM373 686l-200 -410h220v411z" />
    <glyph glyph-name="B" unicode="B" horiz-adv-x="627" 
d="M435 376l35 -12c78 -33 102 -112 101 -175c-3 -146 -97 -189 -220 -189h-258v708h259c104 0 185 -60 185 -172c0 -60 -22 -114 -71 -143zM118 387h234c93 0 161 46 161 148c0 99 -71 150 -161 150h-234v-298zM118 24h234c113 -2 194 43 194 166c0 124 -75 174 -194 173
h-234v-339z" />
    <glyph glyph-name="C" unicode="C" horiz-adv-x="584" 
d="M78 188v332c0 130 126 198 251 198c89 0 178 -34 220 -102l-22 -16c-37 61 -120 94 -201 94c-110 0 -223 -58 -223 -174v-332c0 -116 113 -173 223 -173c80 0 162 29 201 89l22 -11c-42 -68 -133 -103 -223 -103c-123 0 -248 67 -248 198z" />
    <glyph glyph-name="Cacute" unicode="&#x106;" horiz-adv-x="584" 
d="M367 862h35l-72 -103h-25zM78 188v332c0 130 126 198 251 198c89 0 178 -34 220 -102l-22 -16c-37 61 -120 94 -201 94c-110 0 -223 -58 -223 -174v-332c0 -116 113 -173 223 -173c80 0 162 29 201 89l22 -11c-42 -68 -133 -103 -223 -103c-123 0 -248 67 -248 198z" />
    <glyph glyph-name="Ccaron" unicode="&#x10c;" horiz-adv-x="584" 
d="M315 760l-86 94h29l71 -79l72 79h28l-86 -94h-28zM78 188v332c0 130 126 198 251 198c89 0 178 -34 220 -102l-22 -16c-37 61 -120 94 -201 94c-110 0 -223 -58 -223 -174v-332c0 -116 113 -173 223 -173c80 0 162 29 201 89l22 -11c-42 -68 -133 -103 -223 -103
c-123 0 -248 67 -248 198z" />
    <glyph glyph-name="Ccedilla" unicode="&#xc7;" horiz-adv-x="584" 
d="M326 15c80 0 162 29 201 89l22 -11c-38 -61 -116 -96 -197 -102l-34 -60c56 0 79 -34 72 -74c-6 -33 -41 -65 -97 -62c-22 1 -45 9 -65 19l3 18c19 -10 40 -18 62 -19c51 -2 72 24 77 49c7 35 -23 60 -79 53l42 75h-7c-123 0 -248 67 -248 198v332c0 130 126 198 251 198
c89 0 178 -34 220 -102l-22 -16c-37 61 -120 94 -201 94c-110 0 -223 -58 -223 -174v-332c0 -116 113 -173 223 -173z" />
    <glyph glyph-name="Cdotaccent" unicode="&#x10a;" horiz-adv-x="584" 
d="M302 804c0 16 12 28 27 28s27 -12 27 -28c0 -15 -12 -27 -27 -27s-27 12 -27 27zM78 188v332c0 130 126 198 251 198c89 0 178 -34 220 -102l-22 -16c-37 61 -120 94 -201 94c-110 0 -223 -58 -223 -174v-332c0 -116 113 -173 223 -173c80 0 162 29 201 89l22 -11
c-42 -68 -133 -103 -223 -103c-123 0 -248 67 -248 198z" />
    <glyph glyph-name="D" unicode="D" horiz-adv-x="641" 
d="M93 708h239c124 0 228 -56 228 -190v-329c0 -133 -104 -189 -228 -189h-239v708zM118 25h214c112 0 203 47 203 164v329c0 118 -91 165 -203 165h-214v-658z" />
    <glyph glyph-name="Eth" unicode="&#xd0;" horiz-adv-x="639" 
d="M94 362v346h219c124 0 248 -66 248 -200v-309c0 -133 -124 -199 -248 -199h-219v342h-63v20h63zM119 25h194c111 0 223 57 223 174v309c0 118 -112 175 -223 175h-194v-321h145v-20h-145v-317z" />
    <glyph glyph-name="Dcaron" unicode="&#x10e;" horiz-adv-x="641" 
d="M289 760l-86 94h29l71 -79l72 79h28l-86 -94h-28zM93 708h239c124 0 228 -56 228 -190v-329c0 -133 -104 -189 -228 -189h-239v708zM118 25h214c112 0 203 47 203 164v329c0 118 -91 165 -203 165h-214v-658z" />
    <glyph glyph-name="Dcroat" unicode="&#x110;" horiz-adv-x="639" 
d="M94 362v346h219c124 0 248 -66 248 -200v-309c0 -133 -124 -199 -248 -199h-219v342h-63v20h63zM119 25h194c111 0 223 57 223 174v309c0 118 -112 175 -223 175h-194v-321h145v-20h-145v-317z" />
    <glyph glyph-name="E" unicode="E" horiz-adv-x="565" 
d="M118 683v-317h366v-27h-366v-314h396v-25h-421v708h421v-25h-396z" />
    <glyph glyph-name="Eacute" unicode="&#xc9;" horiz-adv-x="565" 
d="M345 862h35l-72 -103h-25zM118 683v-317h366v-27h-366v-314h396v-25h-421v708h421v-25h-396z" />
    <glyph glyph-name="Ecaron" unicode="&#x11a;" horiz-adv-x="565" 
d="M293 760l-86 94h29l71 -79l72 79h28l-86 -94h-28zM118 683v-317h366v-27h-366v-314h396v-25h-421v708h421v-25h-396z" />
    <glyph glyph-name="Ecircumflex" unicode="&#xca;" horiz-adv-x="565" 
d="M407 755h-28l-72 79l-71 -79h-29l86 94h28zM118 683v-317h366v-27h-366v-314h396v-25h-421v708h421v-25h-396z" />
    <glyph glyph-name="Edieresis" unicode="&#xcb;" horiz-adv-x="565" 
d="M190 809c0 13 11 24 24 24s24 -11 24 -24s-11 -24 -24 -24s-24 11 -24 24zM370 809c0 13 11 24 24 24s24 -11 24 -24s-11 -24 -24 -24s-24 11 -24 24zM118 683v-317h366v-27h-366v-314h396v-25h-421v708h421v-25h-396z" />
    <glyph glyph-name="Edotaccent" unicode="&#x116;" horiz-adv-x="565" 
d="M280 804c0 16 12 28 27 28s27 -12 27 -28c0 -15 -12 -27 -27 -27s-27 12 -27 27zM118 683v-317h366v-27h-366v-314h396v-25h-421v708h421v-25h-396z" />
    <glyph glyph-name="Egrave" unicode="&#xc8;" horiz-adv-x="565" 
d="M301 759l-72 103h35l62 -103h-25zM118 683v-317h366v-27h-366v-314h396v-25h-421v708h421v-25h-396z" />
    <glyph glyph-name="Emacron" unicode="&#x112;" horiz-adv-x="565" 
d="M208 786v21h197v-21h-197zM118 683v-317h366v-27h-366v-314h396v-25h-421v708h421v-25h-396z" />
    <glyph glyph-name="Eogonek" unicode="&#x118;" horiz-adv-x="564" 
d="M549 -164l6 -15c-46 -38 -109 -34 -126 24c-13 46 8 92 60 155h-397v708h421v-25h-396v-317h366v-27h-366v-314h396v-25h-1c-63 -78 -71 -116 -61 -149c11 -35 51 -47 98 -15z" />
    <glyph glyph-name="F" unicode="F" horiz-adv-x="537" 
d="M501 683h-383v-330h348v-25h-348v-328h-25v708h408v-25z" />
    <glyph glyph-name="G" unicode="G" horiz-adv-x="634" 
d="M78 191v329c0 130 124 198 248 198c89 0 177 -35 219 -103l-23 -15c-36 65 -117 93 -198 93c-111 0 -221 -57 -221 -173v-329c0 -118 111 -177 223 -177c111 0 224 59 224 177v134h-217v24h242v-158c0 -134 -125 -201 -249 -201s-248 67 -248 201z" />
    <glyph glyph-name="Gbreve" unicode="&#x11e;" horiz-adv-x="634" 
d="M326 777c-44 0 -88 26 -100 77h23c11 -37 44 -55 77 -55s66 18 77 55h23c-12 -51 -56 -77 -100 -77zM78 191v329c0 130 124 198 248 198c89 0 177 -35 219 -103l-23 -15c-36 65 -117 93 -198 93c-111 0 -221 -57 -221 -173v-329c0 -118 111 -177 223 -177
c111 0 224 59 224 177v134h-217v24h242v-158c0 -134 -125 -201 -249 -201s-248 67 -248 201z" />
    <glyph glyph-name="Gcommaaccent" unicode="&#x122;" horiz-adv-x="634" 
d="M78 191v329c0 130 124 198 248 198c89 0 177 -35 219 -103l-23 -15c-36 65 -117 93 -198 93c-111 0 -221 -57 -221 -173v-329c0 -118 111 -177 223 -177c111 0 224 59 224 177v134h-217v24h242v-158c0 -134 -125 -201 -249 -201s-248 67 -248 201zM340 -98l-61 -149h-22
l50 149h33z" />
    <glyph glyph-name="Gdotaccent" unicode="&#x120;" horiz-adv-x="634" 
d="M299 804c0 16 12 28 27 28s27 -12 27 -28c0 -15 -12 -27 -27 -27s-27 12 -27 27zM78 191v329c0 130 124 198 248 198c89 0 177 -35 219 -103l-23 -15c-36 65 -117 93 -198 93c-111 0 -221 -57 -221 -173v-329c0 -118 111 -177 223 -177c111 0 224 59 224 177v134h-217v24
h242v-158c0 -134 -125 -201 -249 -201s-248 67 -248 201z" />
    <glyph glyph-name="H" unicode="H" horiz-adv-x="683" 
d="M118 341v-341h-25v708h25v-342h447v342h25v-708h-25v341h-447z" />
    <glyph glyph-name="Hbar" unicode="&#x126;" horiz-adv-x="688" 
d="M593 538v-538h-25v341h-447v-341h-25v538h-75v23h75v147h25v-147h447v147h25v-147h72v-23h-72zM121 538v-172h447v172h-447z" />
    <glyph glyph-name="I" unicode="I" horiz-adv-x="211" 
d="M118 708v-708h-25v708h25z" />
    <glyph glyph-name="IJ" unicode="&#x132;" horiz-adv-x="787" 
d="M117 708v-708h-25v708h25zM438 685v23h261v-521c0 -130 -119 -197 -238 -197c-98 0 -195 49 -224 143l25 8c30 -90 122 -127 200 -127c104 0 212 56 212 173v498h-236z" />
    <glyph glyph-name="Iacute" unicode="&#xcd;" horiz-adv-x="211" 
d="M144 862h35l-72 -103h-25zM118 708v-708h-25v708h25z" />
    <glyph glyph-name="Icircumflex" unicode="&#xce;" horiz-adv-x="211" 
d="M206 755h-28l-72 79l-71 -79h-29l86 94h28zM118 708v-708h-25v708h25z" />
    <glyph glyph-name="Idieresis" unicode="&#xcf;" horiz-adv-x="211" 
d="M15 809c0 13 11 24 24 24s24 -11 24 -24s-11 -24 -24 -24s-24 11 -24 24zM145 809c0 13 11 24 24 24s24 -11 24 -24s-11 -24 -24 -24s-24 11 -24 24zM118 708v-708h-25v708h25z" />
    <glyph glyph-name="Idotaccent" unicode="&#x130;" horiz-adv-x="211" 
d="M79 804c0 16 12 28 27 28s27 -12 27 -28c0 -15 -12 -27 -27 -27s-27 12 -27 27zM118 708v-708h-25v708h25z" />
    <glyph glyph-name="Igrave" unicode="&#xcc;" horiz-adv-x="211" 
d="M100 759l-72 103h35l62 -103h-25zM118 708v-708h-25v708h25z" />
    <glyph glyph-name="Imacron" unicode="&#x12a;" horiz-adv-x="211" 
d="M7 786v21h197v-21h-197zM118 708v-708h-25v708h25z" />
    <glyph glyph-name="Iogonek" unicode="&#x12e;" horiz-adv-x="211" 
d="M155 -164l6 -15c-46 -38 -109 -34 -126 24c-13 46 8 92 60 155h-2v708h25v-708c-63 -78 -71 -116 -61 -149c11 -35 51 -47 98 -15z" />
    <glyph glyph-name="J" unicode="J" horiz-adv-x="577" 
d="M228 685v23h261v-521c0 -130 -119 -197 -238 -197c-98 0 -195 49 -224 143l25 8c30 -90 122 -127 200 -127c104 0 212 56 212 173v498h-236z" />
    <glyph glyph-name="K" unicode="K" horiz-adv-x="591" 
d="M118 708v-430l419 430h32l-327 -341l327 -367h-29l-316 349l-106 -106v-243h-25v708h25z" />
    <glyph glyph-name="Kcommaaccent" unicode="&#x136;" horiz-adv-x="591" 
d="M118 708v-430l419 430h32l-327 -341l327 -367h-29l-316 349l-106 -106v-243h-25v708h25zM342 -98l-61 -149h-22l50 149h33z" />
    <glyph glyph-name="L" unicode="L" horiz-adv-x="493" 
d="M472 0h-379v708h25v-683h354v-25z" />
    <glyph glyph-name="Lacute" unicode="&#x139;" horiz-adv-x="493" 
d="M145 862h35l-72 -103h-25zM472 0h-379v708h25v-683h354v-25z" />
    <glyph glyph-name="Lcaron" unicode="&#x13d;" horiz-adv-x="494" 
d="M472 0h-379v708h25v-683h354v-25zM428 707l-61 -149h-22l50 149h33z" />
    <glyph glyph-name="Lcommaaccent" unicode="&#x13b;" horiz-adv-x="493" 
d="M472 0h-379v708h25v-683h354v-25zM307 -98l-61 -149h-22l50 149h33z" />
    <glyph glyph-name="Ldot" unicode="&#x13f;" horiz-adv-x="495" 
d="M472 0h-379v708h25v-683h354v-25zM283 311c0 18 15 33 33 33c17 0 32 -15 32 -33c0 -17 -15 -32 -32 -32c-18 0 -33 15 -33 32z" />
    <glyph glyph-name="Lslash" unicode="&#x141;" horiz-adv-x="492" 
d="M458 0h-362v294l-67 -30l-8 17l75 34v394h22v-385l148 67l8 -18l-156 -70v-280h340v-23z" />
    <glyph glyph-name="M" unicode="M" horiz-adv-x="797" 
d="M382 112l-255 571l-9 -1v-682h-25v708h53l253 -573l252 573h53v-708h-25v690h-9l-254 -578h-34z" />
    <glyph glyph-name="N" unicode="N" horiz-adv-x="671" 
d="M132 708l421 -684v684h25v-708h-43l-415 676l-1 -676h-26v708h39z" />
    <glyph glyph-name="Nacute" unicode="&#x143;" horiz-adv-x="671" 
d="M380 862h35l-72 -103h-25zM132 708l421 -684v684h25v-708h-43l-415 676l-1 -676h-26v708h39z" />
    <glyph glyph-name="Ncaron" unicode="&#x147;" horiz-adv-x="671" 
d="M328 760l-86 94h29l71 -79l72 79h28l-86 -94h-28zM132 708l421 -684v684h25v-708h-43l-415 676l-1 -676h-26v708h39z" />
    <glyph glyph-name="Ncommaaccent" unicode="&#x145;" horiz-adv-x="671" 
d="M132 708l421 -684v684h25v-708h-43l-415 676l-1 -676h-26v708h39zM362 -98l-61 -149h-22l50 149h33z" />
    <glyph glyph-name="Eng" unicode="&#x14a;" horiz-adv-x="670" 
d="M577 708v-730c0 -94 -52 -148 -138 -153v22c71 6 113 49 113 131v9l-433 689l-1 -676h-26v708h39l421 -671v671h25z" />
    <glyph glyph-name="Ntilde" unicode="&#xd1;" horiz-adv-x="671" 
d="M253 788l-15 6c10 26 30 49 60 49c40 0 68 -48 99 -48c21 0 31 12 39 32l16 -6c-8 -24 -24 -48 -55 -48c-39 0 -65 49 -100 49c-19 0 -35 -13 -44 -34zM132 708l421 -684v684h25v-708h-43l-415 676l-1 -676h-26v708h39z" />
    <glyph glyph-name="O" unicode="O" horiz-adv-x="682" 
d="M77 191v327c0 133 131 200 263 200s264 -67 264 -200v-327c0 -133 -132 -201 -264 -201s-263 68 -263 201zM102 518v-327c0 -118 118 -176 238 -176c119 0 239 58 239 176v327c0 124 -121 176 -240 176c-119 -1 -237 -54 -237 -176z" />
    <glyph glyph-name="Oacute" unicode="&#xd3;" horiz-adv-x="682" 
d="M377 861h35l-72 -103h-25zM77 191v327c0 133 131 200 263 200s264 -67 264 -200v-327c0 -133 -132 -201 -264 -201s-263 68 -263 201zM102 518v-327c0 -118 118 -176 238 -176c119 0 239 58 239 176v327c0 124 -121 176 -240 176c-119 -1 -237 -54 -237 -176z" />
    <glyph glyph-name="Ocircumflex" unicode="&#xd4;" horiz-adv-x="682" 
d="M439 754h-28l-72 79l-71 -79h-29l86 94h28zM77 191v327c0 133 131 200 263 200s264 -67 264 -200v-327c0 -133 -132 -201 -264 -201s-263 68 -263 201zM102 518v-327c0 -118 118 -176 238 -176c119 0 239 58 239 176v327c0 124 -121 176 -240 176
c-119 -1 -237 -54 -237 -176z" />
    <glyph glyph-name="Odieresis" unicode="&#xd6;" horiz-adv-x="682" 
d="M222 808c0 13 11 24 24 24s24 -11 24 -24s-11 -24 -24 -24s-24 11 -24 24zM402 808c0 13 11 24 24 24s24 -11 24 -24s-11 -24 -24 -24s-24 11 -24 24zM77 191v327c0 133 131 200 263 200s264 -67 264 -200v-327c0 -133 -132 -201 -264 -201s-263 68 -263 201zM102 518
v-327c0 -118 118 -176 238 -176c119 0 239 58 239 176v327c0 124 -121 176 -240 176c-119 -1 -237 -54 -237 -176z" />
    <glyph glyph-name="Ograve" unicode="&#xd2;" horiz-adv-x="682" 
d="M333 758l-72 103h35l62 -103h-25zM77 191v327c0 133 131 200 263 200s264 -67 264 -200v-327c0 -133 -132 -201 -264 -201s-263 68 -263 201zM102 518v-327c0 -118 118 -176 238 -176c119 0 239 58 239 176v327c0 124 -121 176 -240 176c-119 -1 -237 -54 -237 -176z" />
    <glyph glyph-name="Ohungarumlaut" unicode="&#x150;" horiz-adv-x="682" 
d="M336 865l-62 -110h-20l51 110h31zM476 865l-59 -110h-22l51 110h30zM77 191v327c0 133 131 200 263 200s264 -67 264 -200v-327c0 -133 -132 -201 -264 -201s-263 68 -263 201zM102 518v-327c0 -118 118 -176 238 -176c119 0 239 58 239 176v327c0 124 -121 176 -240 176
c-119 -1 -237 -54 -237 -176z" />
    <glyph glyph-name="Omacron" unicode="&#x14c;" horiz-adv-x="682" 
d="M240 785v21h197v-21h-197zM77 191v327c0 133 131 200 263 200s264 -67 264 -200v-327c0 -133 -132 -201 -264 -201s-263 68 -263 201zM102 518v-327c0 -118 118 -176 238 -176c119 0 239 58 239 176v327c0 124 -121 176 -240 176c-119 -1 -237 -54 -237 -176z" />
    <glyph glyph-name="Oslash" unicode="&#xd8;" horiz-adv-x="681" 
d="M77 199v311c0 133 131 200 263 200c35 0 75 -3 123 -21l29 71l19 -7l-29 -71c70 -36 122 -94 122 -172v-311c0 -133 -132 -201 -264 -201c-33 0 -75 8 -120 21l-30 -74l-19 5l29 76c-72 36 -123 93 -123 173zM101 510v-311c0 -65 45 -116 109 -152l244 622
c-47 18 -80 17 -115 17c-119 -1 -238 -54 -238 -176zM581 199v311c0 67 -46 116 -108 151l-244 -620c40 -11 77 -19 111 -19c118 0 240 59 241 177z" />
    <glyph glyph-name="Otilde" unicode="&#xd5;" horiz-adv-x="682" 
d="M250 787l-15 6c10 26 30 49 60 49c40 0 68 -48 99 -48c21 0 31 12 39 32l16 -6c-8 -24 -24 -48 -55 -48c-39 0 -65 49 -100 49c-19 0 -35 -13 -44 -34zM77 191v327c0 133 131 200 263 200s264 -67 264 -200v-327c0 -133 -132 -201 -264 -201s-263 68 -263 201zM102 518
v-327c0 -118 118 -176 238 -176c119 0 239 58 239 176v327c0 124 -121 176 -240 176c-119 -1 -237 -54 -237 -176z" />
    <glyph glyph-name="OE" unicode="&#x152;" horiz-adv-x="929" 
d="M878 685h-365v-320h334v-24h-334v-317h365v-24h-389v44c-59 -31 -115 -51 -161 -50c-129 2 -256 81 -256 211v302c0 132 130 201 261 202c41 0 105 -17 156 -51v50h389v-23zM489 68v573c-48 25 -104 44 -155 43c-119 0 -237 -55 -237 -177v-302c0 -118 118 -186 237 -186
c51 0 106 23 155 49z" />
    <glyph glyph-name="P" unicode="P" horiz-adv-x="602" 
d="M118 0h-25v708h250c144 -2 217 -111 217 -215c0 -103 -72 -210 -216 -211h-226v-282zM118 307h225c130 0 192 95 192 187c0 93 -64 190 -192 191h-225v-378z" />
    <glyph glyph-name="Thorn" unicode="&#xde;" horiz-adv-x="604" 
d="M118 0h-25v708h25v-120h225c144 0 217 -111 217 -215c0 -103 -72 -210 -216 -211h-226v-162zM118 187h225c130 0 192 95 192 187c0 93 -64 190 -192 191h-225v-378z" />
    <glyph glyph-name="Q" unicode="Q" horiz-adv-x="682" 
d="M581 -17l-52 61c-56 -38 -125 -54 -188 -54c-132 0 -263 68 -263 201v327c0 133 131 200 263 200c131 0 263 -67 263 -200v-327c0 -63 -21 -95 -57 -132l53 -63zM472 156l59 -77c38 31 48 74 48 112v327c0 118 -119 176 -238 176c-119 -1 -238 -54 -238 -176v-327
c0 -115 118 -177 238 -177c58 0 121 16 174 50l-62 78z" />
    <glyph glyph-name="R" unicode="R" horiz-adv-x="611" 
d="M545 0h-29l-238 316h-161v-316h-24v708h250c123 0 217 -48 220 -192c0 -147 -90 -200 -219 -200h-38zM117 338h227c129 0 195 52 195 177c0 128 -82 172 -195 170h-227v-347z" />
    <glyph glyph-name="Racute" unicode="&#x154;" horiz-adv-x="611" 
d="M342 862h35l-72 -103h-25zM545 0h-29l-238 316h-161v-316h-24v708h250c123 0 217 -48 220 -192c0 -147 -90 -200 -219 -200h-38zM117 338h227c129 0 195 52 195 177c0 128 -82 172 -195 170h-227v-347z" />
    <glyph glyph-name="Rcaron" unicode="&#x158;" horiz-adv-x="611" 
d="M290 760l-86 94h29l71 -79l72 79h28l-86 -94h-28zM545 0h-29l-238 316h-161v-316h-24v708h250c123 0 217 -48 220 -192c0 -147 -90 -200 -219 -200h-38zM117 338h227c129 0 195 52 195 177c0 128 -82 172 -195 170h-227v-347z" />
    <glyph glyph-name="Rcommaaccent" unicode="&#x156;" horiz-adv-x="611" 
d="M545 0h-29l-238 316h-161v-316h-24v708h250c123 0 217 -48 220 -192c0 -147 -90 -200 -219 -200h-38zM117 338h227c129 0 195 52 195 177c0 128 -82 172 -195 170h-227v-347zM329 -98l-61 -149h-22l50 149h33z" />
    <glyph glyph-name="S" unicode="S" horiz-adv-x="578" 
d="M86 546c-8 -105 94 -149 208 -172c116 -23 242 -70 232 -209c-8 -114 -122 -175 -238 -175c-87 0 -180 34 -233 114l23 10c46 -66 129 -100 212 -100c98 0 195 47 209 151c9 126 -101 161 -211 185c-106 22 -233 62 -227 196c4 117 115 172 228 172
c91 0 176 -32 220 -109l-23 -9c-37 64 -118 94 -197 94c-100 0 -196 -42 -203 -148z" />
    <glyph glyph-name="Sacute" unicode="&#x15a;" horiz-adv-x="578" 
d="M327 862h35l-72 -103h-25zM86 546c-8 -105 94 -149 208 -172c116 -23 242 -70 232 -209c-8 -114 -122 -175 -238 -175c-87 0 -180 34 -233 114l23 10c46 -66 129 -100 212 -100c98 0 195 47 209 151c9 126 -101 161 -211 185c-106 22 -233 62 -227 196
c4 117 115 172 228 172c91 0 176 -32 220 -109l-23 -9c-37 64 -118 94 -197 94c-100 0 -196 -42 -203 -148z" />
    <glyph glyph-name="Scaron" unicode="&#x160;" horiz-adv-x="578" 
d="M275 760l-86 94h29l71 -79l72 79h28l-86 -94h-28zM86 546c-8 -105 94 -149 208 -172c116 -23 242 -70 232 -209c-8 -114 -122 -175 -238 -175c-87 0 -180 34 -233 114l23 10c46 -66 129 -100 212 -100c98 0 195 47 209 151c9 126 -101 161 -211 185
c-106 22 -233 62 -227 196c4 117 115 172 228 172c91 0 176 -32 220 -109l-23 -9c-37 64 -118 94 -197 94c-100 0 -196 -42 -203 -148z" />
    <glyph glyph-name="Scedilla" unicode="&#x15e;" horiz-adv-x="578" 
d="M294 374c116 -23 242 -70 232 -209c-7 -105 -105 -165 -212 -174l-34 -61c56 0 79 -34 72 -74c-6 -33 -41 -65 -97 -62c-22 1 -45 9 -65 19l3 18c19 -10 40 -18 62 -19c51 -2 72 24 77 49c7 35 -23 60 -79 53l42 76h-7c-87 0 -180 34 -233 114l23 10
c46 -66 129 -100 212 -100c98 0 195 47 209 151c9 126 -101 161 -211 185c-106 22 -233 62 -227 196c4 117 115 172 228 172c91 0 176 -32 220 -109l-23 -9c-37 64 -118 94 -197 94c-100 0 -196 -42 -203 -148c-8 -105 94 -149 208 -172z" />
    <glyph glyph-name="Scommaaccent" unicode="&#x218;" horiz-adv-x="578" 
d="M86 546c-8 -105 94 -149 208 -172c116 -23 242 -70 232 -209c-8 -114 -122 -175 -238 -175c-87 0 -180 34 -233 114l23 10c46 -66 129 -100 212 -100c98 0 195 47 209 151c9 126 -101 161 -211 185c-106 22 -233 62 -227 196c4 117 115 172 228 172
c91 0 176 -32 220 -109l-23 -9c-37 64 -118 94 -197 94c-100 0 -196 -42 -203 -148zM307 -100l-61 -149h-22l50 149h33z" />
    <glyph glyph-name="T" unicode="T" horiz-adv-x="541" 
d="M519 708v-25h-236v-683h-25v683h-236v25h497z" />
    <glyph glyph-name="Tbar" unicode="&#x166;" horiz-adv-x="544" 
d="M284 360h96v-19h-96v-341h-25v341h-96v19h96v323h-236v25h497v-25h-236v-323z" />
    <glyph glyph-name="Tcaron" unicode="&#x164;" horiz-adv-x="541" 
d="M257 760l-86 94h29l71 -79l72 79h28l-86 -94h-28zM519 708v-25h-236v-683h-25v683h-236v25h497z" />
    <glyph glyph-name="Tcommaaccent" unicode="&#x162;" horiz-adv-x="541" 
d="M519 708v-25h-236v-683h-25v683h-236v25h497zM290 -98l-61 -149h-22l50 149h33z" />
    <glyph glyph-name="uni021A" unicode="&#x21a;" horiz-adv-x="541" 
d="M519 708v-25h-236v-683h-25v683h-236v25h497zM290 -98l-61 -149h-22l50 149h33z" />
    <glyph glyph-name="U" unicode="U" horiz-adv-x="673" 
d="M113 708v-514c0 -120 111 -180 223 -180c111 0 224 60 224 180v514h25v-514c0 -135 -125 -204 -249 -204s-248 69 -248 204v514h25z" />
    <glyph glyph-name="Uacute" unicode="&#xda;" horiz-adv-x="673" 
d="M375 862h35l-72 -103h-25zM113 708v-514c0 -120 111 -180 223 -180c111 0 224 60 224 180v514h25v-514c0 -135 -125 -204 -249 -204s-248 69 -248 204v514h25z" />
    <glyph glyph-name="Ucircumflex" unicode="&#xdb;" horiz-adv-x="673" 
d="M437 755h-28l-72 79l-71 -79h-29l86 94h28zM113 708v-514c0 -120 111 -180 223 -180c111 0 224 60 224 180v514h25v-514c0 -135 -125 -204 -249 -204s-248 69 -248 204v514h25z" />
    <glyph glyph-name="Udieresis" unicode="&#xdc;" horiz-adv-x="673" 
d="M220 809c0 13 11 24 24 24s24 -11 24 -24s-11 -24 -24 -24s-24 11 -24 24zM400 809c0 13 11 24 24 24s24 -11 24 -24s-11 -24 -24 -24s-24 11 -24 24zM113 708v-514c0 -120 111 -180 223 -180c111 0 224 60 224 180v514h25v-514c0 -135 -125 -204 -249 -204
s-248 69 -248 204v514h25z" />
    <glyph glyph-name="Ugrave" unicode="&#xd9;" horiz-adv-x="673" 
d="M331 759l-72 103h35l62 -103h-25zM113 708v-514c0 -120 111 -180 223 -180c111 0 224 60 224 180v514h25v-514c0 -135 -125 -204 -249 -204s-248 69 -248 204v514h25z" />
    <glyph glyph-name="Uhungarumlaut" unicode="&#x170;" horiz-adv-x="673" 
d="M334 866l-62 -110h-20l51 110h31zM474 866l-59 -110h-22l51 110h30zM113 708v-514c0 -120 111 -180 223 -180c111 0 224 60 224 180v514h25v-514c0 -135 -125 -204 -249 -204s-248 69 -248 204v514h25z" />
    <glyph glyph-name="Umacron" unicode="&#x16a;" horiz-adv-x="673" 
d="M238 786v21h197v-21h-197zM113 708v-514c0 -120 111 -180 223 -180c111 0 224 60 224 180v514h25v-514c0 -135 -125 -204 -249 -204s-248 69 -248 204v514h25z" />
    <glyph glyph-name="Uogonek" unicode="&#x172;" horiz-adv-x="673" 
d="M585 708v-515c0 -96 -72 -150 -136 -188c-38 -22 -109 -85 -90 -154c10 -35 51 -47 98 -15l6 -15c-46 -38 -109 -34 -126 24c-13 45 -1 91 68 153c-19 -6 -50 -8 -69 -8c-124 0 -248 69 -248 204v514h25v-514c0 -120 111 -180 223 -180c111 0 224 60 224 180v514h25z" />
    <glyph glyph-name="Uring" unicode="&#x16e;" horiz-adv-x="673" 
d="M262 830c0 51 36 78 78 78c45 0 75 -38 75 -79c0 -40 -34 -77 -75 -77c-42 0 -78 30 -78 78zM394 830c0 30 -24 57 -55 57s-54 -22 -54 -58c0 -31 24 -56 54 -56c31 0 55 27 55 57zM113 708v-514c0 -120 111 -180 223 -180c111 0 224 60 224 180v514h25v-514
c0 -135 -125 -204 -249 -204s-248 69 -248 204v514h25z" />
    <glyph glyph-name="V" unicode="V" horiz-adv-x="602" 
d="M554 709h28l-260 -709h-40l-266 708h29l255 -679h5z" />
    <glyph glyph-name="W" unicode="W" horiz-adv-x="927" 
d="M874 708h27l-207 -708h-41l-189 578l-190 -578h-39l-210 708h27l201 -673h5l189 567h33l190 -569h6z" />
    <glyph glyph-name="Wacute" unicode="&#x1e82;" horiz-adv-x="927" 
d="M501 862h35l-72 -103h-25zM874 708h27l-207 -708h-41l-189 578l-190 -578h-39l-210 708h27l201 -673h5l189 567h33l190 -569h6z" />
    <glyph glyph-name="Wcircumflex" unicode="&#x174;" horiz-adv-x="927" 
d="M563 755h-28l-72 79l-71 -79h-29l86 94h28zM874 708h27l-207 -708h-41l-189 578l-190 -578h-39l-210 708h27l201 -673h5l189 567h33l190 -569h6z" />
    <glyph glyph-name="Wdieresis" unicode="&#x1e84;" horiz-adv-x="927" 
d="M346 809c0 13 11 24 24 24s24 -11 24 -24s-11 -24 -24 -24s-24 11 -24 24zM526 809c0 13 11 24 24 24s24 -11 24 -24s-11 -24 -24 -24s-24 11 -24 24zM874 708h27l-207 -708h-41l-189 578l-190 -578h-39l-210 708h27l201 -673h5l189 567h33l190 -569h6z" />
    <glyph glyph-name="Wgrave" unicode="&#x1e80;" horiz-adv-x="927" 
d="M457 759l-72 103h35l62 -103h-25zM874 708h27l-207 -708h-41l-189 578l-190 -578h-39l-210 708h27l201 -673h5l189 567h33l190 -569h6z" />
    <glyph glyph-name="X" unicode="X" horiz-adv-x="547" 
d="M288 353l232 -353h-29l-217 336l-217 -336h-31l233 353l-232 355h28l219 -332l218 332h29z" />
    <glyph glyph-name="Y" unicode="Y" horiz-adv-x="550" 
d="M286 281v-281h-25v281l-242 427h30l225 -399l232 399h31z" />
    <glyph glyph-name="Yacute" unicode="&#xdd;" horiz-adv-x="550" 
d="M312 862h35l-72 -103h-25zM286 281v-281h-25v281l-242 427h30l225 -399l232 399h31z" />
    <glyph glyph-name="Ycircumflex" unicode="&#x176;" horiz-adv-x="550" 
d="M374 755h-28l-72 79l-71 -79h-29l86 94h28zM286 281v-281h-25v281l-242 427h30l225 -399l232 399h31z" />
    <glyph glyph-name="Ydieresis" unicode="&#x178;" horiz-adv-x="550" 
d="M157 809c0 13 11 24 24 24s24 -11 24 -24s-11 -24 -24 -24s-24 11 -24 24zM337 809c0 13 11 24 24 24s24 -11 24 -24s-11 -24 -24 -24s-24 11 -24 24zM286 281v-281h-25v281l-242 427h30l225 -399l232 399h31z" />
    <glyph glyph-name="Ygrave" unicode="&#x1ef2;" horiz-adv-x="550" 
d="M268 759l-72 103h35l62 -103h-25zM286 281v-281h-25v281l-242 427h30l225 -399l232 399h31z" />
    <glyph glyph-name="Z" unicode="Z" horiz-adv-x="549" 
d="M49 686v22h460l9 -13l-455 -673h441v-22h-465l-10 12l455 674h-435z" />
    <glyph glyph-name="Zacute" unicode="&#x179;" horiz-adv-x="549" 
d="M324 862h35l-72 -103h-25zM49 686v22h460l9 -13l-455 -673h441v-22h-465l-10 12l455 674h-435z" />
    <glyph glyph-name="Zcaron" unicode="&#x17d;" horiz-adv-x="549" 
d="M272 760l-86 94h29l71 -79l72 79h28l-86 -94h-28zM49 686v22h460l9 -13l-455 -673h441v-22h-465l-10 12l455 674h-435z" />
    <glyph glyph-name="Zdotaccent" unicode="&#x17b;" horiz-adv-x="549" 
d="M259 804c0 16 12 28 27 28s27 -12 27 -28c0 -15 -12 -27 -27 -27s-27 12 -27 27zM49 686v22h460l9 -13l-455 -673h441v-22h-465l-10 12l455 674h-435z" />
    <glyph glyph-name="a" unicode="a" 
d="M139 253l-94 -253h-27l262 708h40l262 -708h-27l-94 253h-322zM302 684h-4l-150 -406h304z" />
    <glyph glyph-name="aacute" unicode="&#xe1;" 
d="M338 862h35l-72 -103h-25zM139 253l-94 -253h-27l262 708h40l262 -708h-27l-94 253h-322zM302 684h-4l-150 -406h304z" />
    <glyph glyph-name="abreve" unicode="&#x103;" 
d="M300 777c-44 0 -88 26 -100 77h23c11 -37 44 -55 77 -55s66 18 77 55h23c-12 -51 -56 -77 -100 -77zM139 253l-94 -253h-27l262 708h40l262 -708h-27l-94 253h-322zM302 684h-4l-150 -406h304z" />
    <glyph glyph-name="acircumflex" unicode="&#xe2;" 
d="M400 755h-28l-72 79l-71 -79h-29l86 94h28zM139 253l-94 -253h-27l262 708h40l262 -708h-27l-94 253h-322zM302 684h-4l-150 -406h304z" />
    <glyph glyph-name="adieresis" unicode="&#xe4;" 
d="M183 809c0 13 11 24 24 24s24 -11 24 -24s-11 -24 -24 -24s-24 11 -24 24zM363 809c0 13 11 24 24 24s24 -11 24 -24s-11 -24 -24 -24s-24 11 -24 24zM139 253l-94 -253h-27l262 708h40l262 -708h-27l-94 253h-322zM302 684h-4l-150 -406h304z" />
    <glyph glyph-name="agrave" unicode="&#xe0;" 
d="M294 759l-72 103h35l62 -103h-25zM139 253l-94 -253h-27l262 708h40l262 -708h-27l-94 253h-322zM302 684h-4l-150 -406h304z" />
    <glyph glyph-name="amacron" unicode="&#x101;" 
d="M201 786v21h197v-21h-197zM139 253l-94 -253h-27l262 708h40l262 -708h-27l-94 253h-322zM302 684h-4l-150 -406h304z" />
    <glyph glyph-name="aogonek" unicode="&#x105;" 
d="M617 -164l6 -15c-46 -38 -109 -34 -126 24c-13 46 8 92 60 155h-2l-94 253h-322l-94 -253h-27l262 708h40l262 -708h-2c-63 -78 -71 -116 -61 -149c11 -35 51 -47 98 -15zM452 278l-150 406h-4l-150 -406h304z" />
    <glyph glyph-name="aring" unicode="&#xe5;" 
d="M582 0h-27l-94 253h-322l-94 -253h-27l257 693c-30 10 -52 37 -52 74c0 51 36 78 78 78c45 0 75 -38 75 -79c0 -32 -21 -62 -51 -73zM246 766c0 -31 24 -56 54 -56c31 0 55 27 55 57s-24 57 -55 57s-54 -22 -54 -58zM452 278l-150 406h-4l-150 -406h304z" />
    <glyph glyph-name="atilde" unicode="&#xe3;" 
d="M211 788l-15 6c10 26 30 49 60 49c40 0 68 -48 99 -48c21 0 31 12 39 32l16 -6c-8 -24 -24 -48 -55 -48c-39 0 -65 49 -100 49c-19 0 -35 -13 -44 -34zM139 253l-94 -253h-27l262 708h40l262 -708h-27l-94 253h-322zM302 684h-4l-150 -406h304z" />
    <glyph glyph-name="ae" unicode="&#xe6;" horiz-adv-x="771" 
d="M720 708v-24h-304v-328h273v-24h-273v-310h304v-22h-327v253h-231l-128 -253h-28l351 708h363zM373 686l-200 -410h220v411z" />
    <glyph glyph-name="b" unicode="b" horiz-adv-x="627" 
d="M435 376l35 -12c78 -33 102 -112 101 -175c-3 -146 -97 -189 -220 -189h-258v708h259c104 0 185 -60 185 -172c0 -60 -22 -114 -71 -143zM118 387h234c93 0 161 46 161 148c0 99 -71 150 -161 150h-234v-298zM118 24h234c113 -2 194 43 194 166c0 124 -75 174 -194 173
h-234v-339z" />
    <glyph glyph-name="c" unicode="c" horiz-adv-x="584" 
d="M78 188v332c0 130 126 198 251 198c89 0 178 -34 220 -102l-22 -16c-37 61 -120 94 -201 94c-110 0 -223 -58 -223 -174v-332c0 -116 113 -173 223 -173c80 0 162 29 201 89l22 -11c-42 -68 -133 -103 -223 -103c-123 0 -248 67 -248 198z" />
    <glyph glyph-name="cacute" unicode="&#x107;" horiz-adv-x="584" 
d="M367 862h35l-72 -103h-25zM78 188v332c0 130 126 198 251 198c89 0 178 -34 220 -102l-22 -16c-37 61 -120 94 -201 94c-110 0 -223 -58 -223 -174v-332c0 -116 113 -173 223 -173c80 0 162 29 201 89l22 -11c-42 -68 -133 -103 -223 -103c-123 0 -248 67 -248 198z" />
    <glyph glyph-name="ccaron" unicode="&#x10d;" horiz-adv-x="584" 
d="M315 760l-86 94h29l71 -79l72 79h28l-86 -94h-28zM78 188v332c0 130 126 198 251 198c89 0 178 -34 220 -102l-22 -16c-37 61 -120 94 -201 94c-110 0 -223 -58 -223 -174v-332c0 -116 113 -173 223 -173c80 0 162 29 201 89l22 -11c-42 -68 -133 -103 -223 -103
c-123 0 -248 67 -248 198z" />
    <glyph glyph-name="ccedilla" unicode="&#xe7;" horiz-adv-x="584" 
d="M326 15c80 0 162 29 201 89l22 -11c-38 -61 -116 -96 -197 -102l-34 -60c56 0 79 -34 72 -74c-6 -33 -41 -65 -97 -62c-22 1 -45 9 -65 19l3 18c19 -10 40 -18 62 -19c51 -2 72 24 77 49c7 35 -23 60 -79 53l42 75h-7c-123 0 -248 67 -248 198v332c0 130 126 198 251 198
c89 0 178 -34 220 -102l-22 -16c-37 61 -120 94 -201 94c-110 0 -223 -58 -223 -174v-332c0 -116 113 -173 223 -173z" />
    <glyph glyph-name="cdotaccent" unicode="&#x10b;" horiz-adv-x="584" 
d="M302 804c0 16 12 28 27 28s27 -12 27 -28c0 -15 -12 -27 -27 -27s-27 12 -27 27zM78 188v332c0 130 126 198 251 198c89 0 178 -34 220 -102l-22 -16c-37 61 -120 94 -201 94c-110 0 -223 -58 -223 -174v-332c0 -116 113 -173 223 -173c80 0 162 29 201 89l22 -11
c-42 -68 -133 -103 -223 -103c-123 0 -248 67 -248 198z" />
    <glyph glyph-name="d" unicode="d" horiz-adv-x="641" 
d="M93 708h239c124 0 228 -56 228 -190v-329c0 -133 -104 -189 -228 -189h-239v708zM118 25h214c112 0 203 47 203 164v329c0 118 -91 165 -203 165h-214v-658z" />
    <glyph glyph-name="eth" unicode="&#xf0;" horiz-adv-x="639" 
d="M94 362v346h219c124 0 248 -66 248 -200v-309c0 -133 -124 -199 -248 -199h-219v342h-63v20h63zM119 25h194c111 0 223 57 223 174v309c0 118 -112 175 -223 175h-194v-321h145v-20h-145v-317z" />
    <glyph glyph-name="dcaron" unicode="&#x10f;" horiz-adv-x="641" 
d="M289 760l-86 94h29l71 -79l72 79h28l-86 -94h-28zM93 708h239c124 0 228 -56 228 -190v-329c0 -133 -104 -189 -228 -189h-239v708zM118 25h214c112 0 203 47 203 164v329c0 118 -91 165 -203 165h-214v-658z" />
    <glyph glyph-name="dcroat" unicode="&#x111;" horiz-adv-x="639" 
d="M94 362v346h219c124 0 248 -66 248 -200v-309c0 -133 -124 -199 -248 -199h-219v342h-63v20h63zM119 25h194c111 0 223 57 223 174v309c0 118 -112 175 -223 175h-194v-321h145v-20h-145v-317z" />
    <glyph glyph-name="e" unicode="e" horiz-adv-x="565" 
d="M118 683v-317h366v-27h-366v-314h396v-25h-421v708h421v-25h-396z" />
    <glyph glyph-name="eacute" unicode="&#xe9;" horiz-adv-x="565" 
d="M345 862h35l-72 -103h-25zM118 683v-317h366v-27h-366v-314h396v-25h-421v708h421v-25h-396z" />
    <glyph glyph-name="ecaron" unicode="&#x11b;" horiz-adv-x="565" 
d="M293 760l-86 94h29l71 -79l72 79h28l-86 -94h-28zM118 683v-317h366v-27h-366v-314h396v-25h-421v708h421v-25h-396z" />
    <glyph glyph-name="ecircumflex" unicode="&#xea;" horiz-adv-x="565" 
d="M407 755h-28l-72 79l-71 -79h-29l86 94h28zM118 683v-317h366v-27h-366v-314h396v-25h-421v708h421v-25h-396z" />
    <glyph glyph-name="edieresis" unicode="&#xeb;" horiz-adv-x="565" 
d="M190 809c0 13 11 24 24 24s24 -11 24 -24s-11 -24 -24 -24s-24 11 -24 24zM370 809c0 13 11 24 24 24s24 -11 24 -24s-11 -24 -24 -24s-24 11 -24 24zM118 683v-317h366v-27h-366v-314h396v-25h-421v708h421v-25h-396z" />
    <glyph glyph-name="edotaccent" unicode="&#x117;" horiz-adv-x="565" 
d="M280 804c0 16 12 28 27 28s27 -12 27 -28c0 -15 -12 -27 -27 -27s-27 12 -27 27zM118 683v-317h366v-27h-366v-314h396v-25h-421v708h421v-25h-396z" />
    <glyph glyph-name="egrave" unicode="&#xe8;" horiz-adv-x="565" 
d="M301 759l-72 103h35l62 -103h-25zM118 683v-317h366v-27h-366v-314h396v-25h-421v708h421v-25h-396z" />
    <glyph glyph-name="emacron" unicode="&#x113;" horiz-adv-x="565" 
d="M208 786v21h197v-21h-197zM118 683v-317h366v-27h-366v-314h396v-25h-421v708h421v-25h-396z" />
    <glyph glyph-name="eogonek" unicode="&#x119;" horiz-adv-x="564" 
d="M549 -164l6 -15c-46 -38 -109 -34 -126 24c-13 46 8 92 60 155h-397v708h421v-25h-396v-317h366v-27h-366v-314h396v-25h-1c-63 -78 -71 -116 -61 -149c11 -35 51 -47 98 -15z" />
    <glyph glyph-name="f" unicode="f" horiz-adv-x="537" 
d="M501 683h-383v-330h348v-25h-348v-328h-25v708h408v-25z" />
    <glyph glyph-name="g" unicode="g" horiz-adv-x="634" 
d="M78 191v329c0 130 124 198 248 198c89 0 177 -35 219 -103l-23 -15c-36 65 -117 93 -198 93c-111 0 -221 -57 -221 -173v-329c0 -118 111 -177 223 -177c111 0 224 59 224 177v134h-217v24h242v-158c0 -134 -125 -201 -249 -201s-248 67 -248 201z" />
    <glyph glyph-name="gbreve" unicode="&#x11f;" horiz-adv-x="634" 
d="M326 777c-44 0 -88 26 -100 77h23c11 -37 44 -55 77 -55s66 18 77 55h23c-12 -51 -56 -77 -100 -77zM78 191v329c0 130 124 198 248 198c89 0 177 -35 219 -103l-23 -15c-36 65 -117 93 -198 93c-111 0 -221 -57 -221 -173v-329c0 -118 111 -177 223 -177
c111 0 224 59 224 177v134h-217v24h242v-158c0 -134 -125 -201 -249 -201s-248 67 -248 201z" />
    <glyph glyph-name="gcommaaccent" unicode="&#x123;" horiz-adv-x="634" 
d="M78 191v329c0 130 124 198 248 198c89 0 177 -35 219 -103l-23 -15c-36 65 -117 93 -198 93c-111 0 -221 -57 -221 -173v-329c0 -118 111 -177 223 -177c111 0 224 59 224 177v134h-217v24h242v-158c0 -134 -125 -201 -249 -201s-248 67 -248 201zM340 -98l-61 -149h-22
l50 149h33z" />
    <glyph glyph-name="gdotaccent" unicode="&#x121;" horiz-adv-x="634" 
d="M299 804c0 16 12 28 27 28s27 -12 27 -28c0 -15 -12 -27 -27 -27s-27 12 -27 27zM78 191v329c0 130 124 198 248 198c89 0 177 -35 219 -103l-23 -15c-36 65 -117 93 -198 93c-111 0 -221 -57 -221 -173v-329c0 -118 111 -177 223 -177c111 0 224 59 224 177v134h-217v24
h242v-158c0 -134 -125 -201 -249 -201s-248 67 -248 201z" />
    <glyph glyph-name="h" unicode="h" horiz-adv-x="683" 
d="M118 341v-341h-25v708h25v-342h447v342h25v-708h-25v341h-447z" />
    <glyph glyph-name="hbar" unicode="&#x127;" horiz-adv-x="688" 
d="M593 538v-538h-25v341h-447v-341h-25v538h-75v23h75v147h25v-147h447v147h25v-147h72v-23h-72zM121 538v-172h447v172h-447z" />
    <glyph glyph-name="i" unicode="i" horiz-adv-x="211" 
d="M118 708v-708h-25v708h25z" />
    <glyph glyph-name="dotlessi" unicode="&#x131;" horiz-adv-x="211" 
d="M118 708v-708h-25v708h25z" />
    <glyph glyph-name="iacute" unicode="&#xed;" horiz-adv-x="211" 
d="M144 862h35l-72 -103h-25zM118 708v-708h-25v708h25z" />
    <glyph glyph-name="icircumflex" unicode="&#xee;" horiz-adv-x="211" 
d="M206 755h-28l-72 79l-71 -79h-29l86 94h28zM118 708v-708h-25v708h25z" />
    <glyph glyph-name="idieresis" unicode="&#xef;" horiz-adv-x="211" 
d="M15 809c0 13 11 24 24 24s24 -11 24 -24s-11 -24 -24 -24s-24 11 -24 24zM145 809c0 13 11 24 24 24s24 -11 24 -24s-11 -24 -24 -24s-24 11 -24 24zM118 708v-708h-25v708h25z" />
    <glyph glyph-name="i.loclTRK" horiz-adv-x="211" 
d="M118 708v-708h-25v708h25z" />
    <glyph glyph-name="igrave" unicode="&#xec;" horiz-adv-x="211" 
d="M100 759l-72 103h35l62 -103h-25zM118 708v-708h-25v708h25z" />
    <glyph glyph-name="ij" unicode="&#x133;" horiz-adv-x="787" 
d="M117 708v-708h-25v708h25zM438 685v23h261v-521c0 -130 -119 -197 -238 -197c-98 0 -195 49 -224 143l25 8c30 -90 122 -127 200 -127c104 0 212 56 212 173v498h-236z" />
    <glyph glyph-name="imacron" unicode="&#x12b;" horiz-adv-x="211" 
d="M7 786v21h197v-21h-197zM118 708v-708h-25v708h25z" />
    <glyph glyph-name="iogonek" unicode="&#x12f;" horiz-adv-x="211" 
d="M155 -164l6 -15c-46 -38 -109 -34 -126 24c-13 46 8 92 60 155h-2v708h25v-708c-63 -78 -71 -116 -61 -149c11 -35 51 -47 98 -15z" />
    <glyph glyph-name="j" unicode="j" horiz-adv-x="577" 
d="M228 685v23h261v-521c0 -130 -119 -197 -238 -197c-98 0 -195 49 -224 143l25 8c30 -90 122 -127 200 -127c104 0 212 56 212 173v498h-236z" />
    <glyph glyph-name="k" unicode="k" horiz-adv-x="591" 
d="M118 708v-430l419 430h32l-327 -341l327 -367h-29l-316 349l-106 -106v-243h-25v708h25z" />
    <glyph glyph-name="kcommaaccent" unicode="&#x137;" horiz-adv-x="591" 
d="M118 708v-430l419 430h32l-327 -341l327 -367h-29l-316 349l-106 -106v-243h-25v708h25zM342 -98l-61 -149h-22l50 149h33z" />
    <glyph glyph-name="l" unicode="l" horiz-adv-x="492" 
d="M471 0h-379v708h25v-683h354v-25z" />
    <glyph glyph-name="lacute" unicode="&#x13a;" horiz-adv-x="493" 
d="M145 862h35l-72 -103h-25zM472 0h-379v708h25v-683h354v-25z" />
    <glyph glyph-name="lcaron" unicode="&#x13e;" horiz-adv-x="494" 
d="M472 0h-379v708h25v-683h354v-25zM428 707l-61 -149h-22l50 149h33z" />
    <glyph glyph-name="lcommaaccent" unicode="&#x13c;" horiz-adv-x="493" 
d="M472 0h-379v708h25v-683h354v-25zM307 -98l-61 -149h-22l50 149h33z" />
    <glyph glyph-name="ldot" unicode="&#x140;" horiz-adv-x="495" 
d="M472 0h-379v708h25v-683h354v-25zM283 311c0 18 15 33 33 33c17 0 32 -15 32 -33c0 -17 -15 -32 -32 -32c-18 0 -33 15 -33 32z" />
    <glyph glyph-name="lslash" unicode="&#x142;" horiz-adv-x="492" 
d="M458 0h-362v294l-67 -30l-8 17l75 34v394h22v-385l148 67l8 -18l-156 -70v-280h340v-23z" />
    <glyph glyph-name="m" unicode="m" horiz-adv-x="797" 
d="M382 112l-255 571l-9 -1v-682h-25v708h53l253 -573l252 573h53v-708h-25v690h-9l-254 -578h-34z" />
    <glyph glyph-name="n" unicode="n" horiz-adv-x="671" 
d="M132 708l421 -684v684h25v-708h-43l-415 676l-1 -676h-26v708h39z" />
    <glyph glyph-name="nacute" unicode="&#x144;" horiz-adv-x="671" 
d="M380 862h35l-72 -103h-25zM132 708l421 -684v684h25v-708h-43l-415 676l-1 -676h-26v708h39z" />
    <glyph glyph-name="ncaron" unicode="&#x148;" horiz-adv-x="671" 
d="M328 760l-86 94h29l71 -79l72 79h28l-86 -94h-28zM132 708l421 -684v684h25v-708h-43l-415 676l-1 -676h-26v708h39z" />
    <glyph glyph-name="ncommaaccent" unicode="&#x146;" horiz-adv-x="671" 
d="M132 708l421 -684v684h25v-708h-43l-415 676l-1 -676h-26v708h39zM362 -98l-61 -149h-22l50 149h33z" />
    <glyph glyph-name="eng" unicode="&#x14b;" horiz-adv-x="670" 
d="M577 708v-730c0 -94 -52 -148 -138 -153v22c71 6 113 49 113 131v9l-433 689l-1 -676h-26v708h39l421 -671v671h25z" />
    <glyph glyph-name="ntilde" unicode="&#xf1;" horiz-adv-x="671" 
d="M253 788l-15 6c10 26 30 49 60 49c40 0 68 -48 99 -48c21 0 31 12 39 32l16 -6c-8 -24 -24 -48 -55 -48c-39 0 -65 49 -100 49c-19 0 -35 -13 -44 -34zM132 708l421 -684v684h25v-708h-43l-415 676l-1 -676h-26v708h39z" />
    <glyph glyph-name="o" unicode="o" horiz-adv-x="682" 
d="M77 191v327c0 133 131 200 263 200s264 -67 264 -200v-327c0 -133 -132 -201 -264 -201s-263 68 -263 201zM102 518v-327c0 -118 118 -176 238 -176c119 0 239 58 239 176v327c0 124 -121 176 -240 176c-119 -1 -237 -54 -237 -176z" />
    <glyph glyph-name="oacute" unicode="&#xf3;" horiz-adv-x="682" 
d="M377 861h35l-72 -103h-25zM77 191v327c0 133 131 200 263 200s264 -67 264 -200v-327c0 -133 -132 -201 -264 -201s-263 68 -263 201zM102 518v-327c0 -118 118 -176 238 -176c119 0 239 58 239 176v327c0 124 -121 176 -240 176c-119 -1 -237 -54 -237 -176z" />
    <glyph glyph-name="ocircumflex" unicode="&#xf4;" horiz-adv-x="682" 
d="M439 754h-28l-72 79l-71 -79h-29l86 94h28zM77 191v327c0 133 131 200 263 200s264 -67 264 -200v-327c0 -133 -132 -201 -264 -201s-263 68 -263 201zM102 518v-327c0 -118 118 -176 238 -176c119 0 239 58 239 176v327c0 124 -121 176 -240 176
c-119 -1 -237 -54 -237 -176z" />
    <glyph glyph-name="odieresis" unicode="&#xf6;" horiz-adv-x="682" 
d="M222 808c0 13 11 24 24 24s24 -11 24 -24s-11 -24 -24 -24s-24 11 -24 24zM402 808c0 13 11 24 24 24s24 -11 24 -24s-11 -24 -24 -24s-24 11 -24 24zM77 191v327c0 133 131 200 263 200s264 -67 264 -200v-327c0 -133 -132 -201 -264 -201s-263 68 -263 201zM102 518
v-327c0 -118 118 -176 238 -176c119 0 239 58 239 176v327c0 124 -121 176 -240 176c-119 -1 -237 -54 -237 -176z" />
    <glyph glyph-name="ograve" unicode="&#xf2;" horiz-adv-x="682" 
d="M333 758l-72 103h35l62 -103h-25zM77 191v327c0 133 131 200 263 200s264 -67 264 -200v-327c0 -133 -132 -201 -264 -201s-263 68 -263 201zM102 518v-327c0 -118 118 -176 238 -176c119 0 239 58 239 176v327c0 124 -121 176 -240 176c-119 -1 -237 -54 -237 -176z" />
    <glyph glyph-name="ohungarumlaut" unicode="&#x151;" horiz-adv-x="682" 
d="M336 865l-62 -110h-20l51 110h31zM476 865l-59 -110h-22l51 110h30zM77 191v327c0 133 131 200 263 200s264 -67 264 -200v-327c0 -133 -132 -201 -264 -201s-263 68 -263 201zM102 518v-327c0 -118 118 -176 238 -176c119 0 239 58 239 176v327c0 124 -121 176 -240 176
c-119 -1 -237 -54 -237 -176z" />
    <glyph glyph-name="omacron" unicode="&#x14d;" horiz-adv-x="682" 
d="M240 785v21h197v-21h-197zM77 191v327c0 133 131 200 263 200s264 -67 264 -200v-327c0 -133 -132 -201 -264 -201s-263 68 -263 201zM102 518v-327c0 -118 118 -176 238 -176c119 0 239 58 239 176v327c0 124 -121 176 -240 176c-119 -1 -237 -54 -237 -176z" />
    <glyph glyph-name="oslash" unicode="&#xf8;" horiz-adv-x="681" 
d="M77 199v311c0 133 131 200 263 200c35 0 75 -3 123 -21l29 71l19 -7l-29 -71c70 -36 122 -94 122 -172v-311c0 -133 -132 -201 -264 -201c-33 0 -75 8 -120 21l-30 -74l-19 5l29 76c-72 36 -123 93 -123 173zM101 510v-311c0 -65 45 -116 109 -152l244 622
c-47 18 -80 17 -115 17c-119 -1 -238 -54 -238 -176zM581 199v311c0 67 -46 116 -108 151l-244 -620c40 -11 77 -19 111 -19c118 0 240 59 241 177z" />
    <glyph glyph-name="otilde" unicode="&#xf5;" horiz-adv-x="682" 
d="M250 787l-15 6c10 26 30 49 60 49c40 0 68 -48 99 -48c21 0 31 12 39 32l16 -6c-8 -24 -24 -48 -55 -48c-39 0 -65 49 -100 49c-19 0 -35 -13 -44 -34zM77 191v327c0 133 131 200 263 200s264 -67 264 -200v-327c0 -133 -132 -201 -264 -201s-263 68 -263 201zM102 518
v-327c0 -118 118 -176 238 -176c119 0 239 58 239 176v327c0 124 -121 176 -240 176c-119 -1 -237 -54 -237 -176z" />
    <glyph glyph-name="oe" unicode="&#x153;" horiz-adv-x="929" 
d="M878 685h-365v-320h334v-24h-334v-317h365v-24h-389v44c-59 -31 -115 -51 -161 -50c-129 2 -256 81 -256 211v302c0 132 130 201 261 202c41 0 105 -17 156 -51v50h389v-23zM489 68v573c-48 25 -104 44 -155 43c-119 0 -237 -55 -237 -177v-302c0 -118 118 -186 237 -186
c51 0 106 23 155 49z" />
    <glyph glyph-name="p" unicode="p" horiz-adv-x="602" 
d="M118 0h-25v708h250c144 -2 217 -111 217 -215c0 -103 -72 -210 -216 -211h-226v-282zM118 307h225c130 0 192 95 192 187c0 93 -64 190 -192 191h-225v-378z" />
    <glyph glyph-name="thorn" unicode="&#xfe;" horiz-adv-x="604" 
d="M118 0h-25v708h25v-120h225c144 0 217 -111 217 -215c0 -103 -72 -210 -216 -211h-226v-162zM118 187h225c130 0 192 95 192 187c0 93 -64 190 -192 191h-225v-378z" />
    <glyph glyph-name="q" unicode="q" horiz-adv-x="682" 
d="M581 -17l-52 61c-56 -38 -125 -54 -188 -54c-132 0 -263 68 -263 201v327c0 133 131 200 263 200c131 0 263 -67 263 -200v-327c0 -63 -21 -95 -57 -132l53 -63zM472 156l59 -77c38 31 48 74 48 112v327c0 118 -119 176 -238 176c-119 -1 -238 -54 -238 -176v-327
c0 -115 118 -177 238 -177c58 0 121 16 174 50l-62 78z" />
    <glyph glyph-name="r" unicode="r" horiz-adv-x="611" 
d="M545 0h-29l-238 316h-161v-316h-24v708h250c123 0 217 -48 220 -192c0 -147 -90 -200 -219 -200h-38zM117 338h227c129 0 195 52 195 177c0 128 -82 172 -195 170h-227v-347z" />
    <glyph glyph-name="racute" unicode="&#x155;" horiz-adv-x="611" 
d="M342 862h35l-72 -103h-25zM545 0h-29l-238 316h-161v-316h-24v708h250c123 0 217 -48 220 -192c0 -147 -90 -200 -219 -200h-38zM117 338h227c129 0 195 52 195 177c0 128 -82 172 -195 170h-227v-347z" />
    <glyph glyph-name="rcaron" unicode="&#x159;" horiz-adv-x="611" 
d="M290 760l-86 94h29l71 -79l72 79h28l-86 -94h-28zM545 0h-29l-238 316h-161v-316h-24v708h250c123 0 217 -48 220 -192c0 -147 -90 -200 -219 -200h-38zM117 338h227c129 0 195 52 195 177c0 128 -82 172 -195 170h-227v-347z" />
    <glyph glyph-name="rcommaaccent" unicode="&#x157;" horiz-adv-x="611" 
d="M545 0h-29l-238 316h-161v-316h-24v708h250c123 0 217 -48 220 -192c0 -147 -90 -200 -219 -200h-38zM117 338h227c129 0 195 52 195 177c0 128 -82 172 -195 170h-227v-347zM329 -98l-61 -149h-22l50 149h33z" />
    <glyph glyph-name="s" unicode="s" horiz-adv-x="578" 
d="M86 546c-8 -105 94 -149 208 -172c116 -23 242 -70 232 -209c-8 -114 -122 -175 -238 -175c-87 0 -180 34 -233 114l23 10c46 -66 129 -100 212 -100c98 0 195 47 209 151c9 126 -101 161 -211 185c-106 22 -233 62 -227 196c4 117 115 172 228 172
c91 0 176 -32 220 -109l-23 -9c-37 64 -118 94 -197 94c-100 0 -196 -42 -203 -148z" />
    <glyph glyph-name="sacute" unicode="&#x15b;" horiz-adv-x="578" 
d="M327 862h35l-72 -103h-25zM86 546c-8 -105 94 -149 208 -172c116 -23 242 -70 232 -209c-8 -114 -122 -175 -238 -175c-87 0 -180 34 -233 114l23 10c46 -66 129 -100 212 -100c98 0 195 47 209 151c9 126 -101 161 -211 185c-106 22 -233 62 -227 196
c4 117 115 172 228 172c91 0 176 -32 220 -109l-23 -9c-37 64 -118 94 -197 94c-100 0 -196 -42 -203 -148z" />
    <glyph glyph-name="scaron" unicode="&#x161;" horiz-adv-x="578" 
d="M275 760l-86 94h29l71 -79l72 79h28l-86 -94h-28zM86 546c-8 -105 94 -149 208 -172c116 -23 242 -70 232 -209c-8 -114 -122 -175 -238 -175c-87 0 -180 34 -233 114l23 10c46 -66 129 -100 212 -100c98 0 195 47 209 151c9 126 -101 161 -211 185
c-106 22 -233 62 -227 196c4 117 115 172 228 172c91 0 176 -32 220 -109l-23 -9c-37 64 -118 94 -197 94c-100 0 -196 -42 -203 -148z" />
    <glyph glyph-name="scedilla" unicode="&#x15f;" horiz-adv-x="578" 
d="M294 374c116 -23 242 -70 232 -209c-7 -105 -105 -165 -212 -174l-34 -61c56 0 79 -34 72 -74c-6 -33 -41 -65 -97 -62c-22 1 -45 9 -65 19l3 18c19 -10 40 -18 62 -19c51 -2 72 24 77 49c7 35 -23 60 -79 53l42 76h-7c-87 0 -180 34 -233 114l23 10
c46 -66 129 -100 212 -100c98 0 195 47 209 151c9 126 -101 161 -211 185c-106 22 -233 62 -227 196c4 117 115 172 228 172c91 0 176 -32 220 -109l-23 -9c-37 64 -118 94 -197 94c-100 0 -196 -42 -203 -148c-8 -105 94 -149 208 -172z" />
    <glyph glyph-name="scommaaccent" unicode="&#x219;" horiz-adv-x="578" 
d="M86 546c-8 -105 94 -149 208 -172c116 -23 242 -70 232 -209c-8 -114 -122 -175 -238 -175c-87 0 -180 34 -233 114l23 10c46 -66 129 -100 212 -100c98 0 195 47 209 151c9 126 -101 161 -211 185c-106 22 -233 62 -227 196c4 117 115 172 228 172
c91 0 176 -32 220 -109l-23 -9c-37 64 -118 94 -197 94c-100 0 -196 -42 -203 -148zM307 -100l-61 -149h-22l50 149h33z" />
    <glyph glyph-name="germandbls" unicode="&#xdf;" horiz-adv-x="581" 
d="M281 26c110 -2 221 66 221 182s-85 168 -195 167h-116v22h116c88 0 163 51 163 152c0 106 -94 146 -182 146s-182 -55 -182 -152v-543h-24v543c0 112 103 175 206 175s207 -57 207 -169c0 -59 -20 -129 -103 -160c109 -33 136 -108 136 -182c0 -133 -125 -209 -246 -207
c-31 1 -74 12 -103 24l1 26c29 -11 72 -23 101 -24z" />
    <glyph glyph-name="t" unicode="t" horiz-adv-x="541" 
d="M519 708v-25h-236v-683h-25v683h-236v25h497z" />
    <glyph glyph-name="tbar" unicode="&#x167;" horiz-adv-x="544" 
d="M284 360h96v-19h-96v-341h-25v341h-96v19h96v323h-236v25h497v-25h-236v-323z" />
    <glyph glyph-name="tcaron" unicode="&#x165;" horiz-adv-x="541" 
d="M257 760l-86 94h29l71 -79l72 79h28l-86 -94h-28zM519 708v-25h-236v-683h-25v683h-236v25h497z" />
    <glyph glyph-name="tcommaaccent" unicode="&#x163;" horiz-adv-x="541" 
d="M519 708v-25h-236v-683h-25v683h-236v25h497zM290 -98l-61 -149h-22l50 149h33z" />
    <glyph glyph-name="uni021B" unicode="&#x21b;" horiz-adv-x="541" 
d="M519 708v-25h-236v-683h-25v683h-236v25h497zM290 -98l-61 -149h-22l50 149h33z" />
    <glyph glyph-name="u" unicode="u" horiz-adv-x="673" 
d="M113 708v-514c0 -120 111 -180 223 -180c111 0 224 60 224 180v514h25v-514c0 -135 -125 -204 -249 -204s-248 69 -248 204v514h25z" />
    <glyph glyph-name="uacute" unicode="&#xfa;" horiz-adv-x="673" 
d="M375 862h35l-72 -103h-25zM113 708v-514c0 -120 111 -180 223 -180c111 0 224 60 224 180v514h25v-514c0 -135 -125 -204 -249 -204s-248 69 -248 204v514h25z" />
    <glyph glyph-name="ucircumflex" unicode="&#xfb;" horiz-adv-x="673" 
d="M437 755h-28l-72 79l-71 -79h-29l86 94h28zM113 708v-514c0 -120 111 -180 223 -180c111 0 224 60 224 180v514h25v-514c0 -135 -125 -204 -249 -204s-248 69 -248 204v514h25z" />
    <glyph glyph-name="udieresis" unicode="&#xfc;" horiz-adv-x="673" 
d="M220 809c0 13 11 24 24 24s24 -11 24 -24s-11 -24 -24 -24s-24 11 -24 24zM400 809c0 13 11 24 24 24s24 -11 24 -24s-11 -24 -24 -24s-24 11 -24 24zM113 708v-514c0 -120 111 -180 223 -180c111 0 224 60 224 180v514h25v-514c0 -135 -125 -204 -249 -204
s-248 69 -248 204v514h25z" />
    <glyph glyph-name="ugrave" unicode="&#xf9;" horiz-adv-x="673" 
d="M331 759l-72 103h35l62 -103h-25zM113 708v-514c0 -120 111 -180 223 -180c111 0 224 60 224 180v514h25v-514c0 -135 -125 -204 -249 -204s-248 69 -248 204v514h25z" />
    <glyph glyph-name="uhungarumlaut" unicode="&#x171;" horiz-adv-x="673" 
d="M334 866l-62 -110h-20l51 110h31zM474 866l-59 -110h-22l51 110h30zM113 708v-514c0 -120 111 -180 223 -180c111 0 224 60 224 180v514h25v-514c0 -135 -125 -204 -249 -204s-248 69 -248 204v514h25z" />
    <glyph glyph-name="umacron" unicode="&#x16b;" horiz-adv-x="673" 
d="M238 786v21h197v-21h-197zM113 708v-514c0 -120 111 -180 223 -180c111 0 224 60 224 180v514h25v-514c0 -135 -125 -204 -249 -204s-248 69 -248 204v514h25z" />
    <glyph glyph-name="uogonek" unicode="&#x173;" horiz-adv-x="673" 
d="M585 708v-515c0 -96 -72 -150 -136 -188c-38 -22 -109 -85 -90 -154c10 -35 51 -47 98 -15l6 -15c-46 -38 -109 -34 -126 24c-13 45 -1 91 68 153c-19 -6 -50 -8 -69 -8c-124 0 -248 69 -248 204v514h25v-514c0 -120 111 -180 223 -180c111 0 224 60 224 180v514h25z" />
    <glyph glyph-name="uring" unicode="&#x16f;" horiz-adv-x="673" 
d="M262 830c0 51 36 78 78 78c45 0 75 -38 75 -79c0 -40 -34 -77 -75 -77c-42 0 -78 30 -78 78zM394 830c0 30 -24 57 -55 57s-54 -22 -54 -58c0 -31 24 -56 54 -56c31 0 55 27 55 57zM113 708v-514c0 -120 111 -180 223 -180c111 0 224 60 224 180v514h25v-514
c0 -135 -125 -204 -249 -204s-248 69 -248 204v514h25z" />
    <glyph glyph-name="v" unicode="v" horiz-adv-x="602" 
d="M554 709h28l-260 -709h-40l-266 708h29l255 -679h5z" />
    <glyph glyph-name="w" unicode="w" horiz-adv-x="927" 
d="M874 708h27l-207 -708h-41l-189 578l-190 -578h-39l-210 708h27l201 -673h5l189 567h33l190 -569h6z" />
    <glyph glyph-name="wacute" unicode="&#x1e83;" horiz-adv-x="927" 
d="M501 862h35l-72 -103h-25zM874 708h27l-207 -708h-41l-189 578l-190 -578h-39l-210 708h27l201 -673h5l189 567h33l190 -569h6z" />
    <glyph glyph-name="wcircumflex" unicode="&#x175;" horiz-adv-x="927" 
d="M563 755h-28l-72 79l-71 -79h-29l86 94h28zM874 708h27l-207 -708h-41l-189 578l-190 -578h-39l-210 708h27l201 -673h5l189 567h33l190 -569h6z" />
    <glyph glyph-name="wdieresis" unicode="&#x1e85;" horiz-adv-x="927" 
d="M346 809c0 13 11 24 24 24s24 -11 24 -24s-11 -24 -24 -24s-24 11 -24 24zM526 809c0 13 11 24 24 24s24 -11 24 -24s-11 -24 -24 -24s-24 11 -24 24zM874 708h27l-207 -708h-41l-189 578l-190 -578h-39l-210 708h27l201 -673h5l189 567h33l190 -569h6z" />
    <glyph glyph-name="wgrave" unicode="&#x1e81;" horiz-adv-x="927" 
d="M457 759l-72 103h35l62 -103h-25zM874 708h27l-207 -708h-41l-189 578l-190 -578h-39l-210 708h27l201 -673h5l189 567h33l190 -569h6z" />
    <glyph glyph-name="x" unicode="x" horiz-adv-x="547" 
d="M288 353l232 -353h-29l-217 336l-217 -336h-31l233 353l-232 355h28l219 -332l218 332h29z" />
    <glyph glyph-name="y" unicode="y" horiz-adv-x="550" 
d="M286 281v-281h-25v281l-242 427h30l225 -399l232 399h31z" />
    <glyph glyph-name="yacute" unicode="&#xfd;" horiz-adv-x="550" 
d="M312 862h35l-72 -103h-25zM286 281v-281h-25v281l-242 427h30l225 -399l232 399h31z" />
    <glyph glyph-name="ycircumflex" unicode="&#x177;" horiz-adv-x="550" 
d="M374 755h-28l-72 79l-71 -79h-29l86 94h28zM286 281v-281h-25v281l-242 427h30l225 -399l232 399h31z" />
    <glyph glyph-name="ydieresis" unicode="&#xff;" horiz-adv-x="550" 
d="M157 809c0 13 11 24 24 24s24 -11 24 -24s-11 -24 -24 -24s-24 11 -24 24zM337 809c0 13 11 24 24 24s24 -11 24 -24s-11 -24 -24 -24s-24 11 -24 24zM286 281v-281h-25v281l-242 427h30l225 -399l232 399h31z" />
    <glyph glyph-name="ygrave" unicode="&#x1ef3;" horiz-adv-x="550" 
d="M268 759l-72 103h35l62 -103h-25zM286 281v-281h-25v281l-242 427h30l225 -399l232 399h31z" />
    <glyph glyph-name="z" unicode="z" horiz-adv-x="549" 
d="M49 686v22h460l9 -13l-455 -673h441v-22h-465l-10 12l455 674h-435z" />
    <glyph glyph-name="zacute" unicode="&#x17a;" horiz-adv-x="549" 
d="M324 862h35l-72 -103h-25zM49 686v22h460l9 -13l-455 -673h441v-22h-465l-10 12l455 674h-435z" />
    <glyph glyph-name="zcaron" unicode="&#x17e;" horiz-adv-x="549" 
d="M272 760l-86 94h29l71 -79l72 79h28l-86 -94h-28zM49 686v22h460l9 -13l-455 -673h441v-22h-465l-10 12l455 674h-435z" />
    <glyph glyph-name="zdotaccent" unicode="&#x17c;" horiz-adv-x="549" 
d="M259 804c0 16 12 28 27 28s27 -12 27 -28c0 -15 -12 -27 -27 -27s-27 12 -27 27zM49 686v22h460l9 -13l-455 -673h441v-22h-465l-10 12l455 674h-435z" />
    <glyph glyph-name="ordfeminine" unicode="&#xaa;" horiz-adv-x="372" 
d="M275 562v51c0 52 -47 74 -97 74c-28 0 -59 -11 -84 -31l-15 13c29 25 66 39 101 39c58 0 116 -30 116 -94v-223c-46 -14 -87 -20 -129 -19c-60 1 -108 45 -108 110c1 77 61 98 123 98c25 0 59 -4 93 -18zM275 403v140c-29 10 -65 18 -95 18c-52 0 -99 -15 -100 -79
c0 -55 39 -89 89 -90c31 0 66 3 106 11z" />
    <glyph glyph-name="ordmasculine" unicode="&#xba;" horiz-adv-x="406" 
d="M203 365c-67 0 -136 36 -136 108v128c0 72 69 108 136 108s136 -36 136 -108v-128c0 -72 -69 -108 -136 -108zM87 598v-122c0 -68 61 -92 116 -92s116 24 116 92v122c0 68 -61 92 -116 92s-116 -24 -116 -92z" />
    <glyph glyph-name="uni0410" unicode="&#x410;" 
d="M139 253l-94 -253h-27l262 708h40l262 -708h-27l-94 253h-322zM302 684h-4l-150 -406h304z" />
    <glyph glyph-name="uni0411" unicode="&#x411;" horiz-adv-x="619" 
d="M522 685h-404v-292h242c140 0 213 -66 211 -204c-2 -146 -97 -189 -220 -189h-258v708h429v-23zM118 369v-345h234c113 -2 194 43 194 166c0 127 -74 179 -194 179h-234z" />
    <glyph glyph-name="uni0412" unicode="&#x412;" horiz-adv-x="627" 
d="M435 376l35 -12c78 -33 102 -112 101 -175c-3 -146 -97 -189 -220 -189h-258v708h259c104 0 185 -60 185 -172c0 -60 -22 -114 -71 -143zM118 387h234c93 0 161 46 161 148c0 99 -71 150 -161 150h-234v-298zM118 24h234c113 -2 194 43 194 166c0 124 -75 174 -194 173
h-234v-339z" />
    <glyph glyph-name="uni0413" unicode="&#x413;" horiz-adv-x="515" 
d="M493 683h-375v-683h-25v708h400v-25z" />
    <glyph glyph-name="uni0414" unicode="&#x414;" horiz-adv-x="677" 
d="M572 26h67v-183h-26v157h-576v-157h-26v183h25c117 15 141 180 159 446l16 236h361v-682zM235 682l-17 -260c-17 -255 -58 -371 -125 -396h453v656h-311z" />
    <glyph glyph-name="uni0415" unicode="&#x415;" horiz-adv-x="565" 
d="M118 683v-317h366v-27h-366v-314h396v-25h-421v708h421v-25h-396z" />
    <glyph glyph-name="uni0401" unicode="&#x401;" horiz-adv-x="565" 
d="M190 809c0 13 11 24 24 24s24 -11 24 -24s-11 -24 -24 -24s-24 11 -24 24zM370 809c0 13 11 24 24 24s24 -11 24 -24s-11 -24 -24 -24s-24 11 -24 24zM118 683v-317h366v-27h-366v-314h396v-25h-421v708h421v-25h-396z" />
    <glyph glyph-name="uni0416" unicode="&#x416;" horiz-adv-x="863" 
d="M542 372l292 -372h-34l-276 352l-80 -89v-263h-25v263l-80 89l-276 -352h-34l292 372l-303 336l38 -1l363 -408v409h25v-409l363 408l38 1z" />
    <glyph glyph-name="uni0417" unicode="&#x417;" horiz-adv-x="533" 
d="M257 718c104 0 185 -60 185 -182c0 -72 -20 -116 -109 -160c131 -42 144 -111 143 -187c-3 -146 -97 -199 -220 -199c-95 0 -173 32 -223 102l21 13c48 -62 113 -91 203 -91c113 -2 194 53 194 176c0 124 -75 175 -194 175h-87v21h87c93 0 161 47 161 149
c0 109 -71 160 -161 160c-71 0 -136 -22 -173 -74l-20 10c42 63 110 87 193 87z" />
    <glyph glyph-name="uni0418" unicode="&#x418;" horiz-adv-x="687" 
d="M594 0h-25v623l1 53h-1l-36 -54l-401 -622h-39v708h25v-615l-1 -69h1l43 66l399 618h34v-708z" />
    <glyph glyph-name="uni0419" unicode="&#x419;" horiz-adv-x="687" 
d="M469 921h25c-12 -75 -66 -131 -149 -131s-137 56 -149 131h25c13 -60 51 -106 124 -106s111 46 124 106zM594 0h-25v624l1 52h-1l-34 -52l-403 -624h-39v708h25v-597l-1 -87h1l52 80l389 604h35v-708z" />
    <glyph glyph-name="uni041A" unicode="&#x41a;" horiz-adv-x="591" 
d="M118 708v-430l419 430h32l-327 -341l327 -367h-29l-316 349l-106 -106v-243h-25v708h25z" />
    <glyph glyph-name="uni041B" unicode="&#x41b;" horiz-adv-x="660" 
d="M567 0h-25v683h-309l-20 -282c-13 -184 -33 -401 -207 -401v25c141 0 169 191 182 378l22 305h357v-708z" />
    <glyph glyph-name="uni041C" unicode="&#x41c;" horiz-adv-x="797" 
d="M382 112l-255 571l-9 -1v-682h-25v708h53l253 -573l252 573h53v-708h-25v690h-9l-254 -578h-34z" />
    <glyph glyph-name="uni041D" unicode="&#x41d;" horiz-adv-x="683" 
d="M118 341v-341h-25v708h25v-342h447v342h25v-708h-25v341h-447z" />
    <glyph glyph-name="uni041E" unicode="&#x41e;" horiz-adv-x="682" 
d="M77 191v327c0 133 131 200 263 200s264 -67 264 -200v-327c0 -133 -132 -201 -264 -201s-263 68 -263 201zM102 518v-327c0 -118 118 -176 238 -176c119 0 239 58 239 176v327c0 124 -121 176 -240 176c-119 -1 -237 -54 -237 -176z" />
    <glyph glyph-name="uni041F" unicode="&#x41f;" horiz-adv-x="675" 
d="M118 683v-683h-25v708h489v-708h-25v683h-439z" />
    <glyph glyph-name="uni0420" unicode="&#x420;" horiz-adv-x="602" 
d="M118 0h-25v708h250c144 -2 217 -111 217 -215c0 -103 -72 -210 -216 -211h-226v-282zM118 307h225c130 0 192 95 192 187c0 93 -64 190 -192 191h-225v-378z" />
    <glyph glyph-name="uni0421" unicode="&#x421;" horiz-adv-x="584" 
d="M78 188v332c0 130 126 198 251 198c89 0 178 -34 220 -102l-22 -16c-37 61 -120 94 -201 94c-110 0 -223 -63 -223 -179v-327c0 -116 113 -173 223 -173c80 0 162 29 201 89l22 -11c-42 -68 -133 -103 -223 -103c-123 0 -248 67 -248 198z" />
    <glyph glyph-name="uni0422" unicode="&#x422;" horiz-adv-x="541" 
d="M519 708v-25h-236v-683h-25v683h-236v25h497z" />
    <glyph glyph-name="uni0423" unicode="&#x423;" horiz-adv-x="506" 
d="M175 0h-29l99 216l-242 492h32l173 -357l51 -104h1l43 97l164 364h29z" />
    <glyph glyph-name="uni0424" unicode="&#x424;" horiz-adv-x="725" 
d="M375 708v-86c148 0 290 -28 290 -169v-198c0 -141 -142 -169 -290 -169v-86h-25v86c-148 0 -290 28 -290 169v198c0 141 142 169 290 169v86h25zM350 111v486c-123 0 -265 -20 -265 -144v-198c0 -124 142 -144 265 -144zM375 597v-486c123 0 265 20 265 144v198
c0 124 -142 144 -265 144z" />
    <glyph glyph-name="uni0425" unicode="&#x425;" horiz-adv-x="547" 
d="M291 355l229 -355h-29l-217 336l-217 -336h-31l233 353l-232 355h28l219 -332l218 332h29z" />
    <glyph glyph-name="uni0427" unicode="&#x427;" horiz-adv-x="604" 
d="M511 0h-25v342c-52 -57 -116 -99 -209 -99c-119 0 -219 67 -219 206v259h25v-259c0 -123 97 -181 194 -181s156 44 209 106v334h25v-708z" />
    <glyph glyph-name="uni0426" unicode="&#x426;" horiz-adv-x="679" 
d="M574 26h67v-183h-26v157h-523v708h25v-682h431v682h26v-682z" />
    <glyph glyph-name="uni0428" unicode="&#x428;" horiz-adv-x="881" 
d="M788 0h-695v708h25v-683h310v683h25v-683h310v683h25v-708z" />
    <glyph glyph-name="uni0429" unicode="&#x429;" horiz-adv-x="892" 
d="M787 26h66v-183h-25v157h-737v708h25v-682h310v682h25v-682h310v682h26v-682z" />
    <glyph glyph-name="uni042F" unicode="&#x42f;" horiz-adv-x="621" 
d="M528 0h-25l2 309h-168l-268 -309h-32l268 309c-130 0 -249 49 -249 189c0 112 68 210 233 210h239v-708zM503 684h-222c-145 0 -200 -92 -200 -186c0 -117 119 -165 213 -165h211z" />
    <glyph glyph-name="uni042C" unicode="&#x42c;" horiz-adv-x="610" 
d="M118 406h236c140 0 213 -66 211 -217c-2 -146 -97 -189 -220 -189h-252v708h25v-302zM118 382v-358h228c113 0 194 43 194 166c0 140 -74 192 -194 192h-228z" />
    <glyph glyph-name="uni042A" unicode="&#x42a;" horiz-adv-x="677" 
d="M185 406h236c140 0 213 -66 211 -217c-2 -146 -97 -189 -220 -189h-252v684h-136v24h161v-302zM185 382v-358h228c113 0 194 43 194 166c0 140 -74 192 -194 192h-228z" />
    <glyph glyph-name="uni042B" unicode="&#x42b;" horiz-adv-x="810" 
d="M118 406h236c140 0 213 -66 211 -217c-2 -146 -97 -189 -220 -189h-252v708h25v-302zM717 0h-25v708h25v-708zM118 382v-358h228c113 0 194 43 194 166c0 140 -74 192 -194 192h-228z" />
    <glyph glyph-name="uni042D" unicode="&#x42d;" horiz-adv-x="595" 
d="M267 718c133 0 250 -68 250 -198v-332c0 -131 -125 -198 -248 -198c-90 0 -181 35 -223 103l22 11c39 -60 121 -89 201 -89c110 0 223 57 223 173v153h-338v27h338v152c0 116 -113 174 -223 174c-81 0 -165 -33 -202 -94l-21 16c42 68 132 102 221 102z" />
    <glyph glyph-name="uni042E" unicode="&#x42e;" horiz-adv-x="919" 
d="M582 718c132 0 264 -63 264 -200v-326c0 -136 -132 -201 -264 -201s-263 65 -263 201v152h-203v-344h-25v708h25v-339h203v149c0 136 131 200 263 200zM581 694c-119 -1 -237 -54 -237 -176v-326c0 -118 118 -176 238 -176c119 0 239 58 239 176v326
c0 124 -121 176 -240 176z" />
    <glyph glyph-name="uni0414.loclBGR" horiz-adv-x="670" 
d="M584 26h67v-183h-26v157h-580v-157h-26v183h67l230 682h37zM113 26h445l-224 658z" />
    <glyph glyph-name="uni041B.loclBGR" horiz-adv-x="588" 
d="M569 0h-28l-194 553l-52 142h-5l-51 -146l-193 -549h-27l251 708h47z" />
    <glyph glyph-name="uni0430" unicode="&#x430;" 
d="M139 253l-94 -253h-27l262 708h40l262 -708h-27l-94 253h-322zM302 684h-4l-150 -406h304z" />
    <glyph glyph-name="uni0431" unicode="&#x431;" horiz-adv-x="619" 
d="M522 685h-404v-292h242c140 0 213 -66 211 -204c-2 -146 -97 -189 -220 -189h-258v708h429v-23zM118 369v-345h234c113 -2 194 43 194 166c0 127 -74 179 -194 179h-234z" />
    <glyph glyph-name="uni0432" unicode="&#x432;" horiz-adv-x="627" 
d="M435 376l35 -12c78 -33 102 -112 101 -175c-3 -146 -97 -189 -220 -189h-258v708h259c104 0 185 -60 185 -172c0 -60 -22 -114 -71 -143zM118 387h234c93 0 161 46 161 148c0 99 -71 150 -161 150h-234v-298zM118 24h234c113 -2 194 43 194 166c0 124 -75 174 -194 173
h-234v-339z" />
    <glyph glyph-name="uni0433" unicode="&#x433;" horiz-adv-x="515" 
d="M493 683h-375v-683h-25v708h400v-25z" />
    <glyph glyph-name="uni0434" unicode="&#x434;" horiz-adv-x="670" 
d="M584 26h67v-183h-26v157h-580v-157h-26v183h67l230 682h37zM113 26h445l-224 658z" />
    <glyph glyph-name="uni0435" unicode="&#x435;" horiz-adv-x="565" 
d="M118 683v-317h366v-27h-366v-314h396v-25h-421v708h421v-25h-396z" />
    <glyph glyph-name="uni0451" unicode="&#x451;" horiz-adv-x="565" 
d="M190 809c0 13 11 24 24 24s24 -11 24 -24s-11 -24 -24 -24s-24 11 -24 24zM370 809c0 13 11 24 24 24s24 -11 24 -24s-11 -24 -24 -24s-24 11 -24 24zM118 683v-317h366v-27h-366v-314h396v-25h-421v708h421v-25h-396z" />
    <glyph glyph-name="uni0436" unicode="&#x436;" horiz-adv-x="863" 
d="M542 372l292 -372h-34l-276 352l-80 -89v-263h-25v263l-80 89l-276 -352h-34l292 372l-303 336l38 -1l363 -408v409h25v-409l363 408l38 1z" />
    <glyph glyph-name="uni0437" unicode="&#x437;" horiz-adv-x="533" 
d="M257 718c104 0 185 -60 185 -182c0 -72 -20 -116 -109 -160c131 -42 144 -111 143 -187c-3 -146 -97 -199 -220 -199c-95 0 -173 32 -223 102l21 13c48 -62 113 -91 203 -91c113 -2 194 53 194 176c0 124 -75 175 -194 175h-87v21h87c93 0 161 47 161 149
c0 109 -71 160 -161 160c-71 0 -136 -22 -173 -74l-20 10c42 63 110 87 193 87z" />
    <glyph glyph-name="uni0438" unicode="&#x438;" horiz-adv-x="687" 
d="M594 0h-25v623l1 53h-1l-36 -54l-401 -622h-39v708h25v-615l-1 -69h1l43 66l399 618h34v-708z" />
    <glyph glyph-name="uni0439" unicode="&#x439;" horiz-adv-x="687" 
d="M469 921h25c-12 -75 -66 -131 -149 -131s-137 56 -149 131h25c13 -60 51 -106 124 -106s111 46 124 106zM594 0h-25v624l1 52h-1l-34 -52l-403 -624h-39v708h25v-597l-1 -87h1l52 80l389 604h35v-708z" />
    <glyph glyph-name="uni043A" unicode="&#x43a;" horiz-adv-x="591" 
d="M118 708v-430l419 430h32l-327 -341l327 -367h-29l-316 349l-106 -106v-243h-25v708h25z" />
    <glyph glyph-name="uni043B" unicode="&#x43b;" horiz-adv-x="588" 
d="M569 0h-28l-194 553l-52 142h-5l-51 -146l-193 -549h-27l251 708h47z" />
    <glyph glyph-name="uni043C" unicode="&#x43c;" horiz-adv-x="797" 
d="M382 112l-255 571l-9 -1v-682h-25v708h53l253 -573l252 573h53v-708h-25v690h-9l-254 -578h-34z" />
    <glyph glyph-name="uni043D" unicode="&#x43d;" horiz-adv-x="683" 
d="M118 341v-341h-25v708h25v-342h447v342h25v-708h-25v341h-447z" />
    <glyph glyph-name="uni043E" unicode="&#x43e;" horiz-adv-x="682" 
d="M77 191v327c0 133 131 200 263 200s264 -67 264 -200v-327c0 -133 -132 -201 -264 -201s-263 68 -263 201zM102 518v-327c0 -118 118 -176 238 -176c119 0 239 58 239 176v327c0 124 -121 176 -240 176c-119 -1 -237 -54 -237 -176z" />
    <glyph glyph-name="uni043F" unicode="&#x43f;" horiz-adv-x="675" 
d="M118 683v-683h-25v708h489v-708h-25v683h-439z" />
    <glyph glyph-name="uni0440" unicode="&#x440;" horiz-adv-x="602" 
d="M118 0h-25v708h250c144 -2 217 -111 217 -215c0 -103 -72 -210 -216 -211h-226v-282zM118 307h225c130 0 192 95 192 187c0 93 -64 190 -192 191h-225v-378z" />
    <glyph glyph-name="uni0441" unicode="&#x441;" horiz-adv-x="584" 
d="M78 188v332c0 130 126 198 251 198c89 0 178 -34 220 -102l-22 -16c-37 61 -120 94 -201 94c-110 0 -223 -63 -223 -179v-327c0 -116 113 -173 223 -173c80 0 162 29 201 89l22 -11c-42 -68 -133 -103 -223 -103c-123 0 -248 67 -248 198z" />
    <glyph glyph-name="uni0442" unicode="&#x442;" horiz-adv-x="541" 
d="M519 708v-25h-236v-683h-25v683h-236v25h497z" />
    <glyph glyph-name="uni0443" unicode="&#x443;" horiz-adv-x="506" 
d="M175 0h-29l99 216l-242 492h32l173 -357l51 -104h1l43 97l164 364h29z" />
    <glyph glyph-name="uni0444" unicode="&#x444;" horiz-adv-x="725" 
d="M375 708v-86c148 0 290 -28 290 -169v-198c0 -141 -142 -169 -290 -169v-86h-25v86c-148 0 -290 28 -290 169v198c0 141 142 169 290 169v86h25zM350 111v486c-123 0 -265 -20 -265 -144v-198c0 -124 142 -144 265 -144zM375 597v-486c123 0 265 20 265 144v198
c0 124 -142 144 -265 144z" />
    <glyph glyph-name="uni0445" unicode="&#x445;" horiz-adv-x="547" 
d="M291 355l229 -355h-29l-217 336l-217 -336h-31l233 353l-232 355h28l219 -332l218 332h29z" />
    <glyph glyph-name="uni0447" unicode="&#x447;" horiz-adv-x="604" 
d="M511 0h-25v342c-52 -57 -116 -99 -209 -99c-119 0 -219 67 -219 206v259h25v-259c0 -123 97 -181 194 -181s156 44 209 106v334h25v-708z" />
    <glyph glyph-name="uni0446" unicode="&#x446;" horiz-adv-x="679" 
d="M574 26h67v-183h-26v157h-523v708h25v-682h431v682h26v-682z" />
    <glyph glyph-name="uni0448" unicode="&#x448;" horiz-adv-x="881" 
d="M788 0h-695v708h25v-683h310v683h25v-683h310v683h25v-708z" />
    <glyph glyph-name="uni0449" unicode="&#x449;" horiz-adv-x="892" 
d="M787 26h66v-183h-25v157h-737v708h25v-682h310v682h25v-682h310v682h26v-682z" />
    <glyph glyph-name="uni044F" unicode="&#x44f;" horiz-adv-x="621" 
d="M528 0h-25l2 309h-168l-268 -309h-32l268 309c-130 0 -249 49 -249 189c0 112 68 210 233 210h239v-708zM503 684h-222c-145 0 -200 -92 -200 -186c0 -117 119 -165 213 -165h211z" />
    <glyph glyph-name="uni044C" unicode="&#x44c;" horiz-adv-x="610" 
d="M118 406h236c140 0 213 -66 211 -217c-2 -146 -97 -189 -220 -189h-252v708h25v-302zM118 382v-358h228c113 0 194 43 194 166c0 140 -74 192 -194 192h-228z" />
    <glyph glyph-name="uni044A" unicode="&#x44a;" horiz-adv-x="677" 
d="M185 406h236c140 0 213 -66 211 -217c-2 -146 -97 -189 -220 -189h-252v684h-136v24h161v-302zM185 382v-358h228c113 0 194 43 194 166c0 140 -74 192 -194 192h-228z" />
    <glyph glyph-name="uni044B" unicode="&#x44b;" horiz-adv-x="810" 
d="M118 406h236c140 0 213 -66 211 -217c-2 -146 -97 -189 -220 -189h-252v708h25v-302zM717 0h-25v708h25v-708zM118 382v-358h228c113 0 194 43 194 166c0 140 -74 192 -194 192h-228z" />
    <glyph glyph-name="uni044D" unicode="&#x44d;" horiz-adv-x="595" 
d="M267 718c133 0 250 -68 250 -198v-332c0 -131 -125 -198 -248 -198c-90 0 -181 35 -223 103l22 11c39 -60 121 -89 201 -89c110 0 223 57 223 173v153h-338v27h338v152c0 116 -113 174 -223 174c-81 0 -165 -33 -202 -94l-21 16c42 68 132 102 221 102z" />
    <glyph glyph-name="uni044E" unicode="&#x44e;" horiz-adv-x="919" 
d="M582 718c132 0 264 -63 264 -200v-326c0 -136 -132 -201 -264 -201s-263 65 -263 201v152h-203v-344h-25v708h25v-339h203v149c0 136 131 200 263 200zM581 694c-119 -1 -237 -54 -237 -176v-326c0 -118 118 -176 238 -176c119 0 239 58 239 176v326
c0 124 -121 176 -240 176z" />
    <glyph glyph-name="uni0432.loclBGR" horiz-adv-x="627" 
d="M435 376l35 -12c78 -33 102 -112 101 -175c-3 -146 -97 -189 -220 -189h-258v708h259c104 0 185 -60 185 -172c0 -60 -22 -114 -71 -143zM118 387h234c93 0 161 46 161 148c0 99 -71 150 -161 150h-234v-298zM118 24h234c113 -2 194 43 194 166c0 124 -75 174 -194 173
h-234v-339z" />
    <glyph glyph-name="uni0433.loclBGR" horiz-adv-x="515" 
d="M493 683h-375v-683h-25v708h400v-25z" />
    <glyph glyph-name="uni0434.loclBGR" horiz-adv-x="670" 
d="M584 26h67v-183h-26v157h-580v-157h-26v183h67l230 682h37zM113 26h445l-224 658z" />
    <glyph glyph-name="uni0436.loclBGR" horiz-adv-x="863" 
d="M542 372l292 -372h-34l-276 352l-80 -89v-263h-25v263l-80 89l-276 -352h-34l292 372l-303 336l38 -1l363 -408v409h25v-409l363 408l38 1z" />
    <glyph glyph-name="uni0438.loclBGR" horiz-adv-x="687" 
d="M594 0h-25v623l1 53h-1l-36 -54l-401 -622h-39v708h25v-615l-1 -69h1l43 66l399 618h34v-708z" />
    <glyph glyph-name="uni0439.loclBGR" horiz-adv-x="687" 
d="M469 921h25c-12 -75 -66 -131 -149 -131s-137 56 -149 131h25c13 -60 51 -106 124 -106s111 46 124 106zM594 0h-25v624l1 52h-1l-34 -52l-403 -624h-39v708h25v-597l-1 -87h1l52 80l389 604h35v-708z" />
    <glyph glyph-name="uni043A.loclBGR" horiz-adv-x="591" 
d="M118 708v-430l419 430h32l-327 -341l327 -367h-29l-316 349l-106 -106v-243h-25v708h25z" />
    <glyph glyph-name="uni043B.loclBGR" horiz-adv-x="588" 
d="M569 0h-28l-194 553l-52 142h-5l-51 -146l-193 -549h-27l251 708h47z" />
    <glyph glyph-name="uni043F.loclBGR" horiz-adv-x="675" 
d="M118 683v-683h-25v708h489v-708h-25v683h-439z" />
    <glyph glyph-name="uni0442.loclBGR" horiz-adv-x="541" 
d="M519 708v-25h-236v-683h-25v683h-236v25h497z" />
    <glyph glyph-name="uni0446.loclBGR" horiz-adv-x="679" 
d="M574 26h67v-183h-26v157h-523v708h25v-682h431v682h26v-682z" />
    <glyph glyph-name="uni0448.loclBGR" horiz-adv-x="881" 
d="M788 0h-695v708h25v-683h310v683h25v-683h310v683h25v-708z" />
    <glyph glyph-name="uni0449.loclBGR" horiz-adv-x="892" 
d="M787 26h66v-183h-25v157h-737v708h25v-682h310v682h25v-682h310v682h26v-682z" />
    <glyph glyph-name="uni044E.loclBGR" horiz-adv-x="919" 
d="M582 718c132 0 264 -63 264 -200v-326c0 -136 -132 -201 -264 -201s-263 65 -263 201v152h-203v-344h-25v708h25v-339h203v149c0 136 131 200 263 200zM581 694c-119 -1 -237 -54 -237 -176v-326c0 -118 118 -176 238 -176c119 0 239 58 239 176v326
c0 124 -121 176 -240 176z" />
    <glyph glyph-name="Delta" unicode="&#x2206;" horiz-adv-x="568" 
d="M29 0v24c79 226 156 458 235 684h42l233 -683v-25h-510zM55 22h455l-222 666h-6z" />
    <glyph glyph-name="uni03A9" unicode="&#x3a9;" horiz-adv-x="766" 
d="M249 37l-36 30c-81 66 -146 172 -146 311c0 196 144 327 321 327c185 0 310 -149 310 -323c0 -145 -80 -271 -177 -345h190v-22h-241v12c111 67 203 209 203 355c0 142 -104 300 -285 300c-170 0 -295 -130 -295 -305c0 -159 92 -273 205 -349v-12h-243v21h194z" />
    <glyph glyph-name="Omega" unicode="&#x2126;" horiz-adv-x="768" 
d="M250 37l-36 30c-81 66 -146 172 -146 311c0 196 144 327 321 327c185 0 310 -149 310 -323c0 -145 -80 -271 -177 -345h190v-22h-241v12c111 67 203 209 203 355c0 142 -104 300 -285 300c-170 0 -295 -130 -295 -305c0 -159 92 -273 205 -349v-12h-243v21h194z" />
    <glyph glyph-name="uni03BC" unicode="&#x3bc;" horiz-adv-x="523" 
d="M421 0v137c-28 -103 -109 -137 -180 -137c-53 0 -116 19 -138 96l1 -307h-22v729h23v-328c0 -74 27 -171 136 -171c99 0 175 73 175 212v287h24l3 -518h-22z" />
    <glyph glyph-name="mu" unicode="&#xb5;" horiz-adv-x="515" 
d="M417 0v137c-28 -103 -109 -137 -180 -137c-53 0 -116 19 -138 96l1 -307h-22v729h23v-328c0 -74 27 -171 136 -171c99 0 175 73 175 212v287h24l3 -518h-22z" />
    <glyph glyph-name="pi" unicode="&#x3c0;" horiz-adv-x="543" 
d="M480 18l1 -19c-68 0 -78 16 -78 107v387h-242v-486h-21v486c-70 0 -80 -6 -111 -14l-3 19c22 9 56 16 110 16h371l-1 -21h-81v-387c0 -61 0 -88 55 -88z" />
    <glyph glyph-name="zero" unicode="0" horiz-adv-x="625" 
d="M313 -10c-113 0 -239 60 -239 189v350c0 130 126 189 239 189c112 0 238 -59 238 -189v-350c0 -129 -126 -189 -238 -189zM99 529v-350c0 -121 116 -164 214 -164c97 0 213 43 213 164v350c0 122 -116 164 -213 164c-98 0 -214 -42 -214 -164z" />
    <glyph glyph-name="one" unicode="1" horiz-adv-x="291" 
d="M199 708v-708h-24v683l-139 -147l-16 14l145 158h34z" />
    <glyph glyph-name="two" unicode="2" horiz-adv-x="549" 
d="M271 693c-87 3 -154 -34 -190 -103l-22 10c39 81 106 117 213 118c126 -1 217 -82 217 -187c0 -53 -32 -115 -85 -170l-322 -336h408v-25h-435l-11 23l341 357c48 50 78 104 78 152c0 86 -75 157 -192 161z" />
    <glyph glyph-name="three" unicode="3" horiz-adv-x="568" 
d="M45 95l21 13c48 -66 112 -94 202 -94c108 0 215 59 215 173c0 123 -74 186 -193 185h-68v24h68c93 0 161 50 161 150c0 103 -95 149 -186 149c-71 0 -135 -24 -171 -77l-20 10c41 64 110 90 193 90c104 0 208 -54 208 -172c0 -59 -19 -124 -99 -159
c107 -39 132 -116 132 -201c-2 -129 -121 -196 -240 -196c-95 0 -173 31 -223 105z" />
    <glyph glyph-name="four" unicode="4" horiz-adv-x="572" 
d="M456 222h69v-23h-69v-199h-25v199h-384l-16 30l390 479h35v-486zM432 684l-376 -462h375z" />
    <glyph glyph-name="five" unicode="5" horiz-adv-x="574" 
d="M61 93l24 12c38 -57 117 -90 194 -90c120 0 216 54 216 235c0 115 -99 182 -209 182c-75 0 -130 -13 -195 -46l-11 -1v323h404v-23h-379v-267c67 29 126 39 182 38c115 -1 232 -66 234 -205c0 -156 -66 -262 -242 -262c-89 0 -172 33 -218 104z" />
    <glyph glyph-name="six" unicode="6" horiz-adv-x="618" 
d="M534 622l-23 -12c-37 60 -111 84 -191 84c-113 0 -221 -54 -221 -166v-208c52 91 150 110 221 110c122 -1 241 -64 241 -189v-62c0 -125 -119 -189 -241 -189c-123 -1 -246 63 -246 189v350c0 126 123 190 246 189c90 0 172 -30 214 -96zM536 180v60
c0 111 -105 166 -216 166c-113 0 -221 -54 -221 -166v-60c0 -112 108 -166 221 -166c111 0 216 55 216 166z" />
    <glyph glyph-name="seven" unicode="7" horiz-adv-x="493" 
d="M39 684v24h419l14 -24l-374 -684h-28l373 684h-404z" />
    <glyph glyph-name="eight" unicode="8" horiz-adv-x="614" 
d="M316 -10h-19c-119 0 -236 72 -238 201c0 96 42 161 142 191c-84 28 -109 101 -109 164c1 114 101 172 205 172h19c103 0 205 -58 205 -172c0 -61 -24 -133 -108 -163c93 -26 141 -90 142 -192c-3 -129 -119 -201 -239 -201zM316 696h-19c-93 0 -182 -47 -182 -150
c0 -118 93 -154 182 -154h19c89 0 182 36 182 154c0 103 -89 150 -182 150zM297 13h19c98 0 214 57 214 179c0 142 -102 180 -214 180h-19c-112 0 -214 -38 -214 -180c0 -122 116 -179 214 -179z" />
    <glyph glyph-name="nine" unicode="9" horiz-adv-x="618" 
d="M85 90l24 12c37 -60 109 -88 189 -88c113 0 221 57 221 169v197c-63 -94 -149 -102 -221 -102c-122 1 -241 64 -241 189v62c0 125 119 189 241 189c123 1 244 -60 246 -189v-349c0 -126 -123 -191 -246 -190c-92 0 -169 31 -213 100zM82 528v-60
c0 -111 105 -166 216 -166c113 0 222 54 222 166v60c0 112 -109 166 -222 166c-111 0 -216 -55 -216 -166z" />
    <glyph glyph-name="fraction" unicode="&#x2044;" horiz-adv-x="493" 
d="M476 708l-440 -719l-19 9l438 720z" />
    <glyph glyph-name="onehalf" unicode="&#xbd;" horiz-adv-x="693" 
d="M521 714l9 -6l-440 -719l-15 9l439 720zM54 597l-15 13l86 98h27v-408h-21v387zM642 19v-19h-258l-1 2l-5 14l196 200c33 33 56 67 42 110c-21 46 -64 67 -108 67c-38 0 -78 -17 -101 -50l-16 6h1l-3 2c28 43 70 61 119 61c53 0 105 -24 126 -76l-1 1
c21 -54 -10 -104 -44 -133l-181 -185h234z" />
    <glyph glyph-name="onequarter" unicode="&#xbc;" horiz-adv-x="646" 
d="M511 714l9 -6l-440 -719l-15 9l439 720zM57 597l-15 13l86 98h27v-408h-21v387zM603 123v-17h-40v-106h-19v106h-223l-12 18l229 289h25v-290h40zM544 390l-214 -268l214 1v267z" />
    <glyph glyph-name="threequarters" unicode="&#xbe;" horiz-adv-x="709" 
d="M616 708l-439 -718l-14 9l438 719zM248 523c50 -16 67 -62 67 -102c0 -78 -76 -118 -147 -114c-46 3 -97 24 -119 67l19 7c21 -36 64 -53 102 -55c55 -4 125 30 125 95c0 68 -47 95 -105 92h-33v17h33c22 0 52 5 69 21c29 27 26 76 1 105c-21 23 -53 34 -83 34
c-37 0 -78 -15 -100 -45c-4 2 -12 8 -14 10c49 64 155 72 211 14c31 -31 34 -95 0 -129c-7 -7 -15 -11 -26 -17zM662 123v-17h-40v-106h-19v106h-223l-12 18l229 289h25v-290h40zM603 390l-214 -268l214 1v267z" />
    <glyph glyph-name="onesuperior" unicode="&#xb9;" horiz-adv-x="235" 
d="M57 597l-15 13l86 98h27v-408h-21v387z" />
    <glyph glyph-name="twosuperior" unicode="&#xb2;" horiz-adv-x="404" 
d="M329 320v-19h-258l-6 16l196 205c32 33 56 67 42 110c-21 46 -64 67 -108 67c-38 0 -80 -17 -103 -50l-16 8c28 43 70 61 119 61c53 0 105 -24 126 -76l-1 1c21 -54 -10 -98 -44 -133l-181 -190h234z" />
    <glyph glyph-name="threesuperior" unicode="&#xb3;" horiz-adv-x="388" 
d="M261 517c50 -16 67 -62 67 -102c0 -78 -76 -118 -147 -114c-46 3 -97 24 -119 67l19 7c21 -36 64 -53 102 -55c55 -4 125 30 125 95c0 68 -47 95 -105 92h-33v17h33c22 0 52 5 69 21c29 27 26 92 1 121c-21 23 -53 34 -83 34c-37 0 -78 -15 -100 -45l-14 10
c49 64 155 72 211 14c31 -31 34 -111 0 -145c-7 -7 -15 -11 -26 -17z" />
    <glyph glyph-name="asterisk" unicode="*" horiz-adv-x="442" 
d="M233 709l-2 -155c96 30 121 42 147 51l6 -20l-147 -46l95 -130l-16 -11l-94 130c-28 -41 -66 -90 -94 -130l-16 13l99 128c-48 14 -103 32 -152 47c2 9 2 15 4 20l152 -51c0 48 -2 105 -2 154h20z" />
    <glyph glyph-name="backslash" unicode="\" horiz-adv-x="385" 
d="M335 -29l-306 770l19 7l309 -770z" />
    <glyph glyph-name="bullet" unicode="&#x2022;" horiz-adv-x="364" 
d="M91 354c0 50 41 91 91 91s91 -41 91 -91s-41 -91 -91 -91s-91 41 -91 91z" />
    <glyph glyph-name="colon" unicode=":" horiz-adv-x="214" 
d="M76 435c0 17 14 31 31 31s31 -14 31 -31s-14 -31 -31 -31s-31 14 -31 31zM76 57c0 17 14 31 31 31s31 -14 31 -31s-14 -31 -31 -31s-31 14 -31 31z" />
    <glyph glyph-name="comma" unicode="," horiz-adv-x="192" 
d="M119 41l-68 -162h-22l55 162h35z" />
    <glyph glyph-name="ellipsis" unicode="&#x2026;" horiz-adv-x="609" 
d="M470 32c0 17 14 31 31 31s31 -14 31 -31s-14 -31 -31 -31s-31 14 -31 31zM271 30c0 17 14 31 31 31s31 -14 31 -31s-14 -31 -31 -31s-31 14 -31 31zM77 29c0 17 14 31 31 31s31 -14 31 -31s-14 -31 -31 -31s-31 14 -31 31z" />
    <glyph glyph-name="exclam" unicode="!" horiz-adv-x="194" 
d="M84 132v577h25v-577h-25zM66 30c0 17 14 31 31 31s31 -14 31 -31s-14 -31 -31 -31s-31 14 -31 31z" />
    <glyph glyph-name="exclamdown" unicode="&#xa1;" horiz-adv-x="189" 
d="M126 490c0 -17 -14 -31 -31 -31s-31 14 -31 31s14 31 31 31s31 -14 31 -31zM108 367v-572h-27v572h27z" />
    <glyph glyph-name="numbersign" unicode="#" horiz-adv-x="729" 
d="M457 259h185l-6 -20h-185l-72 -239h-24l73 239h-200l-72 -239h-24l73 239h-160l5 20h162l57 195h-184l6 21h185l69 234h23l-70 -234h201l68 234h25l-71 -234h163l-7 -21h-164zM291 454l-57 -195h201l57 195h-201z" />
    <glyph glyph-name="period" unicode="." horiz-adv-x="214" 
d="M76 28c0 17 14 31 31 31s31 -14 31 -31s-14 -31 -31 -31s-31 14 -31 31z" />
    <glyph glyph-name="periodcentered" unicode="&#xb7;" horiz-adv-x="230" 
d="M76 318c0 21 18 39 39 39s39 -18 39 -39s-18 -39 -39 -39s-39 18 -39 39z" />
    <glyph glyph-name="question" unicode="?" horiz-adv-x="452" 
d="M49 630l-14 14c42 41 105 69 166 69c105 0 209 -64 208 -188c-1 -126 -99 -201 -206 -212l-6 -193h-18l-4 210c111 7 213 81 211 196c-2 110 -93 164 -187 164c-51 0 -111 -27 -150 -60zM188 51c14 0 27 -12 27 -27s-13 -26 -27 -26c-15 0 -27 11 -27 26s12 27 27 27z
" />
    <glyph glyph-name="questiondown" unicode="&#xbf;" horiz-adv-x="446" 
d="M261 454c-16 0 -29 14 -29 31s13 30 29 30c17 0 31 -13 31 -30s-14 -31 -31 -31zM401 -102l15 -15c-42 -41 -105 -69 -166 -69c-105 0 -210 64 -209 188c1 126 92 192 206 203c4 123 4 157 5 192h18l6 -210c-111 -7 -213 -74 -211 -186c2 -110 93 -162 187 -162
c51 0 110 26 149 59z" />
    <glyph glyph-name="quotedbl" unicode="&#x22;" horiz-adv-x="266" 
d="M103 708l-12 -176h-13v176h25zM195 708l-12 -176h-13v176h25z" />
    <glyph glyph-name="quotesingle" unicode="'" horiz-adv-x="178" 
d="M105 708l-8 -177h-19v177h27z" />
    <glyph glyph-name="semicolon" unicode=";" horiz-adv-x="272" 
d="M109 420c0 17 14 31 31 31s31 -14 31 -31s-14 -31 -31 -31s-31 14 -31 31zM167 45l-60 -144h-25l44 144h41z" />
    <glyph glyph-name="slash" unicode="/" horiz-adv-x="372" 
d="M323 723l18 -6c-193 -488 -240 -609 -289 -732c-19 5 -19 5 -21 6z" />
    <glyph glyph-name="underscore" unicode="_" horiz-adv-x="589" 
d="M527 -21v-22h-466v22h466z" />
    <glyph glyph-name="braceleft" unicode="{" horiz-adv-x="263" 
d="M220 727h-22c-58 0 -58 -32 -58 -93v-146c1 -111 -36 -165 -64 -176c23 -10 63 -45 63 -174v-147c0 -54 9 -85 65 -85h16v-21h-17c-70 0 -87 41 -87 105v145c0 90 -15 154 -70 168v18c55 14 71 91 71 169v145c0 65 6 113 80 113h23v-21z" />
    <glyph glyph-name="braceright" unicode="}" horiz-adv-x="263" 
d="M43 747h23c68 0 80 -44 80 -112v-145c0 -78 16 -155 71 -169v-18c-55 -14 -70 -90 -70 -168v-144c0 -64 -23 -106 -87 -106h-17v21h15c56 0 66 37 66 85v145c0 129 47 167 64 179c-28 11 -65 65 -64 175v144c0 58 -1 93 -59 93h-22v20z" />
    <glyph glyph-name="bracketleft" unicode="[" horiz-adv-x="237" 
d="M103 730v-828h92v-22h-116v871h116v-21h-92z" />
    <glyph glyph-name="bracketright" unicode="]" horiz-adv-x="238" 
d="M133 -101v828h-90v24h116v-877h-116v25h90z" />
    <glyph glyph-name="parenleft" unicode="(" horiz-adv-x="246" 
d="M187 762l18 -14c-80 -117 -119 -261 -119 -407c0 -145 41 -291 124 -410l-19 -11c-87 125 -131 275 -131 423c0 147 44 295 127 419z" />
    <glyph glyph-name="parenright" unicode=")" horiz-adv-x="246" 
d="M61 -110l-21 13c81 124 119 267 119 409c0 149 -42 298 -122 426l16 10l-1 -1c1 0 3 2 5 3c85 -125 129 -281 129 -436c0 -151 -40 -300 -125 -424z" />
    <glyph glyph-name="emdash" unicode="&#x2014;" horiz-adv-x="1014" 
d="M938 311v-23h-862v23h862z" />
    <glyph glyph-name="endash" unicode="&#x2013;" horiz-adv-x="582" 
d="M506 311v-23h-430v23h430z" />
    <glyph glyph-name="hyphen" unicode="-" horiz-adv-x="421" 
d="M345 312v-24h-269v24h269z" />
    <glyph glyph-name="uni00AD" unicode="&#xad;" horiz-adv-x="353" 
d="M307 281v-23h-228v23h228z" />
    <glyph glyph-name="guillemotleft" unicode="&#xab;" horiz-adv-x="376" 
d="M46 295l122 181c3 -2 12 -8 15 -11c1 -1 2 -2 3 -2l-114 -168c55 -81 83 -126 112 -168l-16 -11zM170 295l122 181c3 -2 12 -8 15 -11c1 -1 2 -2 3 -2l-116 -168c35 -52 79 -116 115 -168l-17 -11z" />
    <glyph glyph-name="guillemotright" unicode="&#xbb;" horiz-adv-x="375" 
d="M206 295l-122 -181c-3 2 -12 8 -15 11c-1 1 -2 2 -3 2l116 168c-99 144 -107 156 -115 168l17 11zM206 114l-18 13l116 168c-99 144 -107 156 -115 168l17 11l122 -179z" />
    <glyph glyph-name="guilsinglleft" unicode="&#x2039;" horiz-adv-x="254" 
d="M46 295l122 181c3 -2 17 -8 20 -11c1 -1 1 -2 -114 -170c35 -52 79 -116 115 -168l-21 -11z" />
    <glyph glyph-name="guilsinglright" unicode="&#x203a;" horiz-adv-x="255" 
d="M208 295l-122 -181c-3 2 -16 8 -19 11c-1 1 -1 2 114 170c-99 144 -107 156 -115 168l20 11z" />
    <glyph glyph-name="quotedblbase" unicode="&#x201e;" horiz-adv-x="321" 
d="M117 34l-66 -155h-23l52 155h37zM247 34l-70 -155h-23l52 155h41z" />
    <glyph glyph-name="quotedblleft" unicode="&#x201c;" horiz-adv-x="314" 
d="M101 532h-36c20 61 40 117 60 177h23zM212 532h-36c20 61 40 117 60 177h23z" />
    <glyph glyph-name="quotedblright" unicode="&#x201d;" horiz-adv-x="306" 
d="M105 708h35c-18 -60 -35 -124 -53 -183h-21zM217 708h35c-18 -60 -35 -124 -53 -183h-21z" />
    <glyph glyph-name="quoteleft" unicode="&#x2018;" horiz-adv-x="201" 
d="M65 532l55 176h25l-45 -176h-35z" />
    <glyph glyph-name="quoteright" unicode="&#x2019;" horiz-adv-x="201" 
d="M151 708l-63 -177h-22l48 177h37z" />
    <glyph glyph-name="quotesinglbase" unicode="&#x201a;" horiz-adv-x="187" 
d="M116 33l-67 -154h-23l52 154h38z" />
    <glyph glyph-name="space" unicode=" " horiz-adv-x="246" 
 />
    <glyph glyph-name="uni00A0" unicode="&#xa0;" horiz-adv-x="246" 
 />
    <glyph glyph-name="florin" unicode="&#x192;" horiz-adv-x="410" 
d="M393 708l-9 -21c-11 4 -28 9 -40 9c-60 0 -90 -48 -98 -95l-36 -199h113l-4 -20h-114l-74 -399c-19 -74 -51 -110 -126 -110l4 24c27 0 82 8 98 85l72 400h-111l5 20h111l37 198v-1c13 61 45 119 123 119c17 0 33 -4 49 -10z" />
    <glyph glyph-name="Euro" unicode="&#x20ac;" horiz-adv-x="596" 
d="M107 411v106c0 132 115 201 229 201c81 0 162 -36 204 -104l-21 -12c-36 62 -114 93 -183 93c-103 0 -205 -57 -205 -178v-106h271l-5 -22h-266v-82h274l-5 -21h-269v-96c0 -117 101 -177 202 -177c74 0 146 31 188 93l19 -12c-42 -68 -124 -104 -207 -104
c-112 0 -226 67 -226 200v96h-61l4 21h57v82h-57l5 22h52z" />
    <glyph glyph-name="cent" unicode="&#xa2;" horiz-adv-x="464" 
d="M401 461l-16 -12c-25 33 -75 60 -127 58v-495c54 2 117 32 136 74l19 -9c-26 -52 -86 -81 -155 -87v-84h-21v84c-88 10 -168 60 -168 152v235c0 92 82 147 168 151v85h21v-85c65 -4 110 -24 143 -67zM237 13v493c-74 -3 -147 -47 -146 -128v-236c0 -77 68 -118 146 -129z
" />
    <glyph glyph-name="currency" unicode="&#xa4;" horiz-adv-x="618" 
d="M85 141l54 54c-43 47 -62 103 -62 159s17 110 60 157l-52 52l13 16l52 -55c52 41 103 61 159 61c53 0 108 -18 156 -59l51 53l15 -12l-54 -56c43 -47 64 -101 64 -157s-19 -109 -62 -156l57 -55l-15 -14l-55 54c-48 -38 -104 -63 -157 -63s-109 23 -158 61l-52 -53z
M97 353c0 -118 96 -211 210 -211c115 0 212 93 212 211c0 120 -97 213 -212 213c-114 0 -210 -93 -210 -213z" />
    <glyph glyph-name="dollar" unicode="$" horiz-adv-x="585" 
d="M305 789v-71c86 -3 165 -36 207 -109l-23 -9c-35 60 -109 91 -184 94v-322c113 -23 225 -64 225 -200c0 -119 -114 -183 -225 -183v-84h-20v84c-85 0 -175 35 -227 113l23 10c44 -64 124 -100 204 -100v339c-105 22 -221 59 -221 191c0 122 110 174 221 176v71h20z
M89 542c0 -102 87 -142 196 -166v318c-98 -2 -196 -51 -196 -152zM502 172c0 114 -92 151 -197 175v-335c94 0 197 55 197 160z" />
    <glyph glyph-name="sterling" unicode="&#xa3;" horiz-adv-x="495" 
d="M157 21v341h-104v20h104v148c0 83 41 188 183 188c44 0 77 -10 112 -38l-15 -17c-26 21 -60 34 -99 34c-113 0 -158 -88 -158 -164v-151h165v-20h-165v-341h245v-21h-372v21h104z" />
    <glyph glyph-name="yen" unicode="&#xa5;" horiz-adv-x="560" 
d="M303 292h153l-5 -23h-162v-74h167l-4 -22h-163v-173h-23v173h-165l3 22h162v74h-163l4 23h146l-224 416h29l220 -410l226 410h29z" />
    <glyph glyph-name="approxequal" unicode="&#x2248;" horiz-adv-x="529" 
d="M437 371l14 -10c-22 -28 -48 -45 -86 -45c-31 0 -60 15 -100 37c-36 20 -66 37 -98 37c-34 0 -56 -15 -75 -41l-14 10c25 34 52 52 91 52c31 0 64 -14 86 -27l16 -9c42 -24 66 -37 97 -37c27 0 49 9 69 33zM437 240l13 -10c-22 -28 -48 -45 -86 -45c-31 0 -59 15 -99 37
c-36 20 -66 37 -98 37c-34 0 -56 -15 -75 -41l-14 10c25 34 53 53 92 53c31 0 63 -15 85 -28l16 -9c42 -24 66 -37 97 -37c27 0 49 9 69 33z" />
    <glyph glyph-name="asciitilde" unicode="~" horiz-adv-x="530" 
d="M443 339l10 -12c-20 -38 -56 -71 -102 -71c-61 0 -116 70 -168 70c-42 0 -69 -22 -93 -56c-4 4 -9 11 -11 13c20 34 55 65 105 65c64 0 106 -70 167 -70c42 0 69 27 92 61z" />
    <glyph glyph-name="divide" unicode="&#xf7;" horiz-adv-x="494" 
d="M248 354l159 159l17 -16l-160 -159l157 -157l-16 -17l-157 157l-161 -161l-16 17l160 160l-163 164l17 16z" />
    <glyph glyph-name="equal" unicode="=" horiz-adv-x="529" 
d="M451 382v-22h-373v22h373zM451 244v-22h-373v22h373z" />
    <glyph glyph-name="greater" unicode="&#x3e;" horiz-adv-x="445" 
d="M72 480v26c109 -66 216 -124 325 -190v-26l-325 -187v23l304 177c-97 56 -206 121 -304 177z" />
    <glyph glyph-name="greaterequal" unicode="&#x2265;" horiz-adv-x="487" 
d="M84 537v24c109 -63 210 -118 319 -181v-26l-319 -177v23l305 167c-97 54 -207 116 -305 170zM71 94h345v-19h-345v19z" />
    <glyph glyph-name="infinity" unicode="&#x221e;" horiz-adv-x="744" 
d="M679 293v-1c0 -82 -65 -137 -134 -137c-52 0 -102 41 -173 118c-54 -59 -109 -118 -178 -118c-70 0 -129 60 -129 134c0 78 53 138 131 138c66 0 123 -60 177 -118l20 23v-1c44 48 91 97 159 97c75 -1 127 -57 127 -135zM199 175h1c52 0 104 51 140 90l22 22
c-44 52 -104 120 -170 120c-67 0 -107 -56 -107 -119c1 -63 46 -113 114 -113zM547 407h-1c-55 0 -103 -49 -137 -86l-28 -29c71 -75 112 -117 167 -117c68 0 109 58 109 114c0 75 -48 118 -110 118z" />
    <glyph glyph-name="integral" unicode="&#x222b;" horiz-adv-x="306" 
d="M284 842l-3 -20c-12 4 -29 9 -39 9c-52 0 -85 -48 -84 -123l5 -265c4 -169 8 -359 8 -457c0 -86 -51 -126 -108 -126c-14 0 -28 1 -42 6l3 22c10 -2 23 -6 31 -6c58 0 92 32 92 105c0 81 -3 226 -6 369c-3 141 -6 281 -6 358c0 88 50 139 103 139c14 0 31 -4 46 -11z" />
    <glyph glyph-name="less" unicode="&#x3c;" horiz-adv-x="442" 
d="M70 303l300 -175v-25c-109 65 -213 122 -322 187v26l322 190v-26z" />
    <glyph glyph-name="lessequal" unicode="&#x2264;" horiz-adv-x="485" 
d="M96 367l305 -167v-23c-108 61 -210 116 -318 177v26l318 181v-24zM69 94h345v-20h-345v20z" />
    <glyph glyph-name="logicalnot" unicode="&#xac;" horiz-adv-x="604" 
d="M78 361v21h443v-195h-21v174h-422z" />
    <glyph glyph-name="minus" unicode="&#x2212;" horiz-adv-x="632" 
d="M554 318v-22h-476v22h476z" />
    <glyph glyph-name="multiply" unicode="&#xd7;" horiz-adv-x="494" 
d="M248 354l159 159l17 -16l-160 -159l157 -157l-16 -17l-157 157l-161 -161l-16 17l160 160l-163 164l17 16z" />
    <glyph glyph-name="notequal" unicode="&#x2260;" horiz-adv-x="557" 
d="M482 385v-19h-161l-72 -160h233v-19h-241l-50 -107l-15 7l46 100h-147v19h155l72 160h-227v19h235l47 106l16 -6l-46 -100h155z" />
    <glyph glyph-name="partialdiff" unicode="&#x2202;" horiz-adv-x="502" 
d="M97 679l-9 20c30 20 73 39 133 39c133 0 219 -136 219 -326c0 -36 -3 -90 -9 -131c-26 -165 -95 -284 -218 -284c-107 0 -164 101 -164 206c0 141 93 234 188 234c80 0 151 -54 172 -116c8 37 8 71 8 99c-1 151 -66 293 -201 293c-53 0 -90 -15 -119 -34zM214 22h1
c100 0 186 122 189 266c-16 51 -84 124 -166 124c-88 0 -165 -91 -165 -207c0 -109 58 -183 141 -183z" />
    <glyph glyph-name="percent" unicode="%" horiz-adv-x="714" 
d="M614 731l-491 -779c-8 4 -14 9 -21 13l492 778zM324 525c0 -112 -58 -180 -138 -180c-88 0 -138 64 -138 182c0 116 58 179 138 179c86 0 138 -66 138 -181zM296 525c0 108 -42 155 -111 155c-74 0 -108 -51 -108 -153c0 -110 34 -155 109 -155c73 0 110 47 110 153z
M666 173c0 -112 -58 -180 -138 -180c-88 0 -138 64 -138 182c0 116 58 179 138 179c86 0 138 -66 138 -181zM638 172c0 108 -43 155 -112 155c-74 0 -109 -51 -109 -152c0 -110 35 -155 110 -155c73 0 111 47 111 152z" />
    <glyph glyph-name="perthousand" unicode="&#x2030;" horiz-adv-x="1023" 
d="M614 731l-491 -779c-8 4 -14 9 -21 13l492 778zM324 525c0 -112 -58 -180 -138 -180c-88 0 -138 64 -138 182c0 116 58 179 138 179c86 0 138 -66 138 -181zM296 525c0 108 -42 155 -111 155c-74 0 -108 -51 -108 -153c0 -110 34 -155 109 -155c73 0 110 47 110 153z
M666 173c0 -112 -58 -180 -138 -180c-88 0 -138 64 -138 182c0 119 58 179 138 179c86 0 138 -66 138 -181zM981 173c0 -112 -58 -180 -138 -180c-88 0 -138 64 -138 182c0 119 58 179 138 179c86 0 138 -66 138 -181zM638 172c0 108 -43 155 -112 155
c-74 0 -110 -51 -110 -152c0 -110 36 -155 111 -155c73 0 111 47 111 152zM953 172c0 108 -43 155 -112 155c-74 0 -110 -51 -110 -152c0 -110 36 -155 111 -155c73 0 111 47 111 152z" />
    <glyph glyph-name="plus" unicode="+" horiz-adv-x="577" 
d="M281 352v226h22v-226h223v-23h-223v-227h-22v227h-231v23h231z" />
    <glyph glyph-name="plusminus" unicode="&#xb1;" horiz-adv-x="574" 
d="M273 419v179h21v-179h195v-21h-195v-182h-21v182h-188v21h188zM487 132v-20h-401v20h401z" />
    <glyph glyph-name="product" unicode="&#x220f;" horiz-adv-x="625" 
d="M494 -53h-23v739h-315v-739h-24v739h-102v22h566v-22h-102v-739z" />
    <glyph glyph-name="radical" unicode="&#x221a;" horiz-adv-x="505" 
d="M251 -137l-150 469l-72 -26c-3 9 -6 12 -9 19l96 35l145 -457l5 1l190 916h24l-202 -957h-27z" />
    <glyph glyph-name="summation" unicode="&#x2211;" horiz-adv-x="523" 
d="M38 -52l271 359c-85 120 -174 258 -259 378v23h415v-22h-385c97 -142 180 -261 259 -375l-273 -364h415v-21h-443v22z" />
    <glyph glyph-name="uni2215" unicode="&#x2215;" horiz-adv-x="493" 
d="M475 708l-439 -728l-19 9l439 729z" />
    <glyph glyph-name="uni2219" unicode="&#x2219;" horiz-adv-x="214" 
d="M76 318c0 17 14 31 31 31s31 -14 31 -31s-14 -31 -31 -31s-31 14 -31 31z" />
    <glyph glyph-name="lozenge" unicode="&#x25ca;" horiz-adv-x="509" 
d="M233 -15l-203 370l78 141c42 77 86 153 129 230h38c68 -124 137 -246 205 -370l-208 -371h-39zM59 357l193 -361l199 359l-197 363z" />
    <glyph glyph-name="uni2113" unicode="&#x2113;" horiz-adv-x="378" 
d="M331 53l13 -16c-29 -26 -63 -42 -102 -42c-97 0 -134 66 -136 178v61l-65 -65l-6 19l71 72v282c0 170 64 219 122 219c64 0 96 -52 96 -140c0 -124 -79 -250 -197 -371v-70c1 -131 51 -164 118 -164c33 0 62 17 86 37zM129 544l-1 -269c104 122 174 230 174 344
c0 64 -12 119 -77 119c-45 0 -96 -44 -96 -194z" />
    <glyph glyph-name="ampersand" unicode="&#x26;" horiz-adv-x="609" 
d="M453 165l62 98l17 -9l-63 -103l110 -125h-29l-92 103c-61 -82 -124 -133 -215 -133c-108 0 -195 70 -195 182c0 97 80 168 165 218c-44 52 -91 114 -91 171c0 89 75 143 158 143c73 0 140 -55 140 -132c0 -88 -74 -138 -147 -176l-23 -14zM277 688
c-70 0 -130 -49 -130 -119c0 -57 52 -123 88 -164c84 42 161 89 161 169c0 67 -50 114 -119 114zM442 143l-214 239c-72 -42 -155 -109 -155 -202c0 -99 67 -163 178 -163c82 0 148 64 191 126z" />
    <glyph glyph-name="asciicircum" unicode="^" horiz-adv-x="509" 
d="M237 708h28c59 -87 118 -172 182 -256h-27l-169 239l-163 -239h-27z" />
    <glyph glyph-name="at" unicode="@" horiz-adv-x="779" 
d="M590 474l-88 -262c-13 -39 -31 -91 25 -91c90 0 181 117 181 250c0 162 -141 261 -297 261c-195 0 -329 -146 -329 -331c0 -235 193 -359 403 -291l6 -19c-220 -72 -430 56 -430 310c0 203 155 352 348 352c181 0 321 -113 321 -282c0 -171 -127 -278 -215 -272
c-32 2 -59 20 -45 82c-49 -68 -100 -85 -145 -85c-76 0 -115 60 -115 129c0 132 81 271 214 271c37 0 102 -12 110 -106l5 -1l30 85h21zM230 227c0 -64 39 -111 100 -111c80 0 146 90 174 174c26 79 20 193 -84 186c-127 2 -190 -147 -190 -249z" />
    <glyph glyph-name="bar" unicode="|" horiz-adv-x="180" 
d="M101 -161h-22v908h22v-908z" />
    <glyph glyph-name="brokenbar" unicode="&#xa6;" horiz-adv-x="192" 
d="M108 373h-24v333h24v-333zM108 -127h-24v346h24v-346z" />
    <glyph glyph-name="copyright" unicode="&#xa9;" horiz-adv-x="830" 
d="M60 354c0 195 160 355 355 355s355 -160 355 -355s-160 -355 -355 -355s-355 160 -355 355zM83 354c0 -185 147 -332 332 -332s332 147 332 332s-147 332 -332 332s-332 -147 -332 -332zM568 514l-17 -11c-29 40 -81 56 -136 56c-79 0 -157 -40 -157 -127v-153
c0 -89 78 -129 157 -129c59 0 120 24 145 74c10 -4 12 -6 21 -10c-30 -56 -97 -86 -166 -86c-89 0 -179 50 -179 151v151c0 101 90 151 179 151c61 0 120 -21 153 -67z" />
    <glyph glyph-name="dagger" unicode="&#x2020;" horiz-adv-x="481" 
d="M37 486v21h191v202h22v-202h194v-21h-194v-600h-22v600h-191z" />
    <glyph glyph-name="daggerdbl" unicode="&#x2021;" horiz-adv-x="552" 
d="M73 87v20h192v389h-192v22h192v191h22v-191h192v-22h-192v-389h192v-20h-192v-196h-22v196h-192z" />
    <glyph glyph-name="degree" unicode="&#xb0;" horiz-adv-x="324" 
d="M162 509c-56 0 -102 46 -102 103c0 56 46 101 102 101s102 -45 102 -101c0 -57 -46 -103 -102 -103zM162 528c45 0 81 36 81 83s-36 83 -81 83s-81 -36 -81 -83s36 -83 81 -83z" />
    <glyph glyph-name="estimated" unicode="&#x212e;" horiz-adv-x="913" 
d="M871 344h-658c-3 0 -5 -1 -5 -5v-199c0 -8 3 -16 8 -23c64 -66 152 -108 249 -108c105 0 198 48 262 121h59c-73 -85 -191 -141 -322 -141c-224 0 -406 163 -406 365s182 366 406 366c225 0 407 -164 407 -366v-10zM722 370v200c0 9 -3 17 -10 24
c-64 63 -150 104 -247 104c-96 0 -184 -42 -248 -107c-6 -7 -9 -16 -9 -25v-196c0 -2 2 -7 5 -7h505c3 0 4 5 4 7z" />
    <glyph glyph-name="paragraph" unicode="&#xb6;" horiz-adv-x="557" 
d="M268 -113v409c-151 0 -232 100 -232 201c0 103 75 212 227 212h212v-822h-21v804h-164v-804h-22z" />
    <glyph glyph-name="registered" unicode="&#xae;" horiz-adv-x="830" 
d="M60 354c0 195 160 355 355 355s355 -160 355 -355s-160 -355 -355 -355s-355 160 -355 355zM84 354c0 -184 147 -331 331 -331s331 147 331 331s-147 331 -331 331s-331 -147 -331 -331zM295 158v398h136c85 0 131 -50 131 -111c0 -69 -53 -110 -120 -115l123 -172h-22
l-125 170h-103v-170h-20zM315 346h86c67 0 140 13 140 99c0 67 -59 92 -113 92h-113v-191z" />
    <glyph glyph-name="section" unicode="&#xa7;" horiz-adv-x="468" 
d="M55 -32l23 10c34 -62 98 -83 146 -84c68 -1 142 23 142 119c0 93 -118 129 -194 167c-57 30 -107 67 -107 133c0 59 54 103 120 132c-60 36 -96 72 -96 124c0 91 82 143 166 143c49 0 115 -19 141 -72l-20 -11c-25 44 -71 60 -121 60c-68 0 -142 -45 -142 -120
c0 -70 71 -100 142 -133c72 -33 156 -76 156 -160c0 -55 -47 -105 -102 -136c56 -33 86 -81 86 -120c0 -113 -85 -149 -171 -149c-68 0 -140 34 -169 97zM175 206l112 -55c42 22 99 69 99 122c0 57 -53 99 -90 119l-82 40c-50 -17 -124 -55 -124 -119c0 -59 53 -89 85 -107z
" />
    <glyph glyph-name="trademark" unicode="&#x2122;" horiz-adv-x="824" 
d="M187 352h-18v341h-130v15h278v-15h-130v-341zM416 694v-342h-17v356h32l139 -299c104 229 124 265 139 299h32v-356h-18l1 345h-3l-139 -299h-24l-138 296h-4z" />
    <glyph glyph-name="acute" unicode="&#xb4;" horiz-adv-x="590" 
d="M345 862h35l-72 -103h-25z" />
    <glyph glyph-name="breve" unicode="&#x2d8;" horiz-adv-x="608" 
d="M304 777c-44 0 -88 26 -100 77h23c11 -37 44 -55 77 -55s66 18 77 55h23c-12 -51 -56 -77 -100 -77z" />
    <glyph glyph-name="caron" unicode="&#x2c7;" horiz-adv-x="278" 
d="M130 760l-86 94h29l71 -79l72 79h28l-86 -94h-28z" />
    <glyph glyph-name="cedilla" unicode="&#xb8;" horiz-adv-x="571" 
d="M309 10l-44 -78c56 0 79 -34 72 -74c-6 -33 -41 -65 -97 -62c-22 1 -45 9 -65 19l3 18c19 -10 40 -18 62 -19c51 -2 72 24 77 49c7 35 -23 60 -79 53l52 94h19z" />
    <glyph glyph-name="circumflex" unicode="&#x2c6;" horiz-adv-x="280" 
d="M241 755h-28l-72 79l-71 -79h-29l86 94h28z" />
    <glyph glyph-name="dieresis" unicode="&#xa8;" horiz-adv-x="300" 
d="M28 809c0 13 11 24 24 24s24 -11 24 -24s-11 -24 -24 -24s-24 11 -24 24zM208 809c0 13 11 24 24 24s24 -11 24 -24s-11 -24 -24 -24s-24 11 -24 24z" />
    <glyph glyph-name="dotaccent" unicode="&#x2d9;" horiz-adv-x="240" 
d="M115 804c0 16 12 28 27 28s27 -12 27 -28c0 -15 -12 -27 -27 -27s-27 12 -27 27z" />
    <glyph glyph-name="grave" unicode="`" horiz-adv-x="210" 
d="M94 759l-72 103h35l62 -103h-25z" />
    <glyph glyph-name="hungarumlaut" unicode="&#x2dd;" horiz-adv-x="239" 
d="M117 866l-62 -110h-20l51 110h31zM257 866l-59 -110h-22l51 110h30z" />
    <glyph glyph-name="macron" unicode="&#xaf;" horiz-adv-x="275" 
d="M44 786v21h197v-21h-197z" />
    <glyph glyph-name="ogonek" unicode="&#x2db;" horiz-adv-x="229" 
d="M190 -164l6 -15c-46 -38 -109 -34 -126 24c-13 46 8 92 60 155h23c-63 -78 -71 -116 -61 -149c11 -35 51 -47 98 -15z" />
    <glyph glyph-name="ring" unicode="&#x2da;" horiz-adv-x="239" 
d="M27 830c0 51 36 78 78 78c45 0 75 -38 75 -79c0 -40 -34 -77 -75 -77c-42 0 -78 30 -78 78zM159 830c0 30 -24 57 -55 57s-54 -22 -54 -58c0 -31 24 -56 54 -56c31 0 55 27 55 57z" />
    <glyph glyph-name="tilde" unicode="&#x2dc;" horiz-adv-x="271" 
d="M60 788l-15 6c10 26 30 49 60 49c40 0 68 -48 99 -48c21 0 31 12 39 32l16 -6c-8 -24 -24 -48 -55 -48c-39 0 -65 49 -100 49c-19 0 -35 -13 -44 -34z" />
    <glyph glyph-name="uni0326" unicode="&#x326;" horiz-adv-x="0" 
d="M323 -98l-61 -149h-22l50 149h33z" />
    <glyph glyph-name="uni02C9" unicode="&#x2c9;" horiz-adv-x="267" 
d="M24 783v24h237v-24h-237z" />
    </font>
</defs>
</svg>
